<?xml version="1.0" encoding="UTF-8" standalone="no" ?>
<!DOCTYPE svg PUBLIC "-//W3C//DTD SVG 1.1//EN" "http://www.w3.org/Graphics/SVG/1.1/DTD/svg11.dtd">
<svg xmlns="http://www.w3.org/2000/svg" xmlns:xlink="http://www.w3.org/1999/xlink" version="1.1" width="1280" height="1024" viewBox="0 0 1280 1024" xml:space="preserve">
<desc>Created with Fabric.js 5.3.0</desc>
<defs>
</defs>
<g transform="matrix(1 0 0 1 640 512)" id="background-logo"  >
<rect style="stroke: none; stroke-width: 0; stroke-dasharray: none; stroke-linecap: butt; stroke-dashoffset: 0; stroke-linejoin: miter; stroke-miterlimit: 4; fill: rgb(255,255,255); fill-opacity: 0; fill-rule: nonzero; opacity: 1;"  paint-order="stroke"  x="-640" y="-512" rx="0" ry="0" width="1280" height="1024" />
</g>
<g transform="matrix(1.8876883195227503 0 0 1.8876883195227503 640.993930952144 506.8548527073852)" id="logo-logo"  >
<g style=""  paint-order="stroke"   >
		<g transform="matrix(0.4032 0 0 -0.4032 10.211900000000014 102.81477749091209)"  >
<path style="stroke: none; stroke-width: 1; stroke-dasharray: none; stroke-linecap: butt; stroke-dashoffset: 0; stroke-linejoin: miter; stroke-miterlimit: 10; fill: rgb(0,0,0); fill-rule: nonzero; opacity: 1;"  paint-order="stroke"  transform=" translate(-2396.55, -5156.989315476901)" d="M 2186.05 5229.84 L 2186.05 5178.63 C 2251.1200000000003 5192.99 2321.6000000000004 5156.22 2380.7200000000003 5132.46 C 2456.21 5102.11 2524.9800000000005 5079.37 2607.05 5081.77 L 2607.05 5132.01 C 2531.8 5129.56 2468.57 5151.27 2399.46 5179.070000000001 C 2332.91 5205.840000000001 2259.64 5242.380000000001 2186.05 5229.840000000001" stroke-linecap="round" />
</g>
		<g transform="matrix(0.4032 0 0 -0.4032 0 -19.0566225090879)"  >
<path style="stroke: none; stroke-width: 1; stroke-dasharray: none; stroke-linecap: butt; stroke-dashoffset: 0; stroke-linejoin: miter; stroke-miterlimit: 10; fill: rgb(0,0,0); fill-rule: nonzero; opacity: 1;"  paint-order="stroke"  transform=" translate(-2371.2200000000003, -5459.283371805583)" d="M 2606.8 5555.02 L 2517.04 5496.410000000001 L 2517.04 5236.890000000001 C 2504.02 5240.270000000001 2491.14 5244.300000000001 2478.38 5248.730000000001 L 2478.38 5457.590000000001 L 2478.38 5516.960000000001 L 2428.13 5485.340000000001 L 2385.46 5458.500000000001 L 2385.46 5555.720000000001 L 2328.86 5555.720000000001 L 2328.86 5620.9000000000015 L 2283.2400000000002 5620.9000000000015 L 2283.2400000000002 5555.720000000001 L 2226.6400000000003 5555.720000000001 L 2226.6400000000003 5327.190000000001 C 2204.07 5327.8600000000015 2181.6800000000003 5325.540000000002 2159.57 5320.990000000002 L 2159.57 5610.440000000001 L 2315.9900000000002 5684.920000000001 L 2517.11 5557.020000000001 L 2517.11 5613.220000000001 L 2319.8500000000004 5742.410000000001 C 2227.07 5698.220000000001 2136.2900000000004 5655.010000000001 2045.8900000000003 5611.960000000001 L 2045.8900000000003 5556.310000000001 L 2109.3300000000004 5586.520000000001 L 2109.3300000000004 5306.3600000000015 C 2086.9200000000005 5297.800000000001 2065.4100000000003 5286.730000000001 2045.8900000000003 5273.270000000001 L 2045.8900000000003 5208.310000000001 C 2207.0200000000004 5360.680000000001 2397.7000000000003 5195.440000000001 2560.0200000000004 5178.0700000000015 C 2608.3900000000003 5172.910000000002 2653.1400000000003 5178.250000000002 2696.5500000000006 5193.330000000002 C 2696.5500000000006 5294.370000000002 2696.5500000000006 5395.390000000002 2696.5500000000006 5496.410000000002 z M 2335.2200000000003 5304.97 C 2316.07 5311.62 2296.7000000000003 5317.3 2276.88 5321.280000000001 L 2276.88 5505.4800000000005 L 2335.2200000000003 5505.4800000000005 z M 2428.13 5268.04 C 2413.9 5273.85 2399.7000000000003 5279.86 2385.46 5285.69 L 2385.46 5399.129999999999 L 2428.13 5425.969999999999 z M 2646.3 5231.34 C 2621.05 5226.21 2595 5224.9400000000005 2567.29 5227.7300000000005 L 2567.29 5469.21 L 2606.8 5495.01 L 2646.3 5469.21 L 2646.3 5231.34" stroke-linecap="round" />
</g>
</g>
</g>
</svg>