<?xml version="1.0" standalone="no"?>
<!DOCTYPE svg PUBLIC "-//W3C//DTD SVG 20010904//EN"
 "http://www.w3.org/TR/2001/REC-SVG-20010904/DTD/svg10.dtd">
<svg version="1.0" xmlns="http://www.w3.org/2000/svg"
 width="16.000000pt" height="16.000000pt" viewBox="0 0 16.000000 16.000000"
 preserveAspectRatio="xMidYMid meet">

<g transform="translate(0.000000,16.000000) scale(0.100000,-0.100000)"
fill="#000000" stroke="none">
<path d="M115 115 c0 -14 5 -25 11 -25 7 0 9 10 6 25 -2 14 -7 25 -11 25 -3 0
-6 -11 -6 -25z"/>
<path d="M35 110 c-4 -6 5 -10 19 -10 14 0 26 -4 26 -10 0 -5 -8 -10 -19 -10
-24 0 -45 -25 -38 -45 4 -9 19 -14 42 -13 33 1 35 3 35 38 0 20 -5 41 -12 48
-15 15 -45 16 -53 2z m45 -60 c0 -5 -9 -10 -20 -10 -11 0 -20 5 -20 10 0 6 9
10 20 10 11 0 20 -4 20 -10z"/>
</g>
</svg>
