<svg xmlns="http://www.w3.org/2000/svg" xmlns:xlink="http://www.w3.org/1999/xlink">

<symbol id="trash-can" viewBox="0 0 448 512">
  <path d="M170.5 51.6L151.5 80l145 0-19-28.4c-1.5-2.2-4-3.6-6.7-3.6l-93.7 0c-2.7 0-5.2 1.3-6.7 3.6zm147-26.6L354.2 80 368 80l48 0 8 0c13.3 0 24 10.7 24 24s-10.7 24-24 24l-8 0 0 304c0 44.2-35.8 80-80 80l-224 0c-44.2 0-80-35.8-80-80l0-304-8 0c-13.3 0-24-10.7-24-24S10.7 80 24 80l8 0 48 0 13.8 0 36.7-55.1C140.9 9.4 158.4 0 177.1 0l93.7 0c18.7 0 36.2 9.4 46.6 24.9zM80 128l0 304c0 17.7 14.3 32 32 32l224 0c17.7 0 32-14.3 32-32l0-304L80 128zm80 64l0 208c0 8.8-7.2 16-16 16s-16-7.2-16-16l0-208c0-8.8 7.2-16 16-16s16 7.2 16 16zm80 0l0 208c0 8.8-7.2 16-16 16s-16-7.2-16-16l0-208c0-8.8 7.2-16 16-16s16 7.2 16 16zm80 0l0 208c0 8.8-7.2 16-16 16s-16-7.2-16-16l0-208c0-8.8 7.2-16 16-16s16 7.2 16 16z"/>
</symbol>
<use xlink:href="#trash-can" y="0" width="30" height="30" />
<view id="trash-can-view" viewBox="0 0 30 30" />

<symbol id="calendar" viewBox="0 0 448 512">
  <path d="M152 24c0-13.3-10.7-24-24-24s-24 10.7-24 24l0 40L64 64C28.7 64 0 92.7 0 128l0 16 0 48L0 448c0 35.3 28.7 64 64 64l320 0c35.3 0 64-28.7 64-64l0-256 0-48 0-16c0-35.3-28.7-64-64-64l-40 0 0-40c0-13.3-10.7-24-24-24s-24 10.7-24 24l0 40L152 64l0-40zM48 192l352 0 0 256c0 8.8-7.2 16-16 16L64 464c-8.8 0-16-7.2-16-16l0-256z"/>
</symbol>
<use xlink:href="#calendar" y="30" width="30" height="30" />
<view id="calendar-view" viewBox="0 30 30 30" />

<symbol id="clone" viewBox="0 0 512 512">
  <path d="M64 464l224 0c8.8 0 16-7.2 16-16l0-64 48 0 0 64c0 35.3-28.7 64-64 64L64 512c-35.3 0-64-28.7-64-64L0 224c0-35.3 28.7-64 64-64l64 0 0 48-64 0c-8.8 0-16 7.2-16 16l0 224c0 8.8 7.2 16 16 16zM224 304l224 0c8.8 0 16-7.2 16-16l0-224c0-8.8-7.2-16-16-16L224 48c-8.8 0-16 7.2-16 16l0 224c0 8.8 7.2 16 16 16zm-64-16l0-224c0-35.3 28.7-64 64-64L448 0c35.3 0 64 28.7 64 64l0 224c0 35.3-28.7 64-64 64l-224 0c-35.3 0-64-28.7-64-64z"/>
</symbol>
<use xlink:href="#clone" y="60" x="0" width="30" height="30" />
<view id="clone-view" viewBox="0 60 30 30" />

<symbol id="folder" viewBox="0 0 24 24">
  <path d="M2.70074 9.13274L2.70064 18.6571C2.70063 19.7616 3.59606 20.6571 4.70064 20.6571L19.8994 20.6571C21.0039 20.6571 21.8993 19.7617 21.8994 18.6572L21.8997 8.72851C21.8997 8.17621 21.452 7.72848 20.8997 7.72848H12.3834L9.61837 4.77484H3.70008C3.14765 4.77484 2.69987 5.22205 2.70005 5.77449C2.70035 6.7253 2.70074 8.15221 2.70074 9.13274Z" stroke="currentColor" fill="none" stroke-width="1.5" stroke-linecap="round" stroke-linejoin="round"/>
</symbol>
<use xlink:href="#folder" y="90" x="0" width="30" height="30" />
<view id="folder-view" viewBox="0 90 30 30" />

<symbol id="folder-open" viewBox="0 0 24 24">
  <path d="M19.5788 10.4842V7.44213C19.5788 6.88985 19.1311 6.44213 18.5788 6.44213H11.9089C11.6436 6.44213 11.3893 6.33678 11.2017 6.14924L9.76648 4.71397C9.57894 4.52644 9.32459 4.42108 9.05937 4.42108H3.3999C2.84762 4.42108 2.3999 4.8688 2.3999 5.42108V18.579C2.3999 19.1313 2.84762 19.579 3.3999 19.579H4.57607C5.0485 19.579 5.43148 19.196 5.43148 18.7236V18.7236C5.43148 18.621 5.44993 18.5193 5.48595 18.4232L8.21973 11.1331C8.36609 10.7428 8.73922 10.4842 9.15606 10.4842H20.2125C20.895 10.4842 21.377 11.1529 21.1612 11.8005L18.7962 18.8952C18.6601 19.3035 18.278 19.579 17.8476 19.579H4.42095" stroke="currentColor" fill="none" stroke-width="1.5" stroke-linecap="round" stroke-linejoin="round"/>
</symbol>
<use xlink:href="#folder-open" y="120" x="0" width="30" height="30" />
<view id="folder-open-view" viewBox="0 120 30 30" />

<symbol id="folder-plus" viewBox="0 0 24 24">
  <path d="M12.1029 19.5147H4.30386C2.97836 19.5147 1.90384 18.4401 1.90386 17.1146L1.90395 7.99034C1.90395 7.07642 1.90361 5.77469 1.90332 4.83214C1.90312 4.16922 2.44045 3.63245 3.10337 3.63245H8.82158L11.5866 6.58608H19.9029C20.5657 6.58608 21.1029 7.12334 21.1029 7.78608V10.9737M18.7029 20.3675L18.7029 16.9734M18.7029 16.9734L18.7029 13.5793M18.7029 16.9734L15.3088 16.9734M18.7029 16.9734L22.097 16.9734" stroke="currentColor" fill="none" stroke-width="1.5" stroke-linecap="round" stroke-linejoin="round"/>
</symbol>
<use xlink:href="#folder-plus" y="150" x="0" width="30" height="30" />
<view id="folder-plus-view" viewBox="0 150 30 30" />

<symbol id="folder-cross" viewBox="0 0 24 24">
  <path d="M12.1029 19.5147H4.30386C2.97836 19.5147 1.90384 18.4401 1.90386 17.1146L1.90395 7.99034C1.90395 7.07642 1.90361 5.77469 1.90332 4.83214C1.90312 4.16922 2.44045 3.63245 3.10337 3.63245H8.82158L11.5866 6.58608H19.9029C20.5657 6.58608 21.1029 7.12334 21.1029 7.78608V10.9737M16 19.5L18.7029 16.9734M18.7029 16.9734L21.5 14.5M18.7029 16.9734L16 14.5M18.7029 16.9734L21.5 19.5" stroke="currentColor" fill="none" stroke-width="1.5" stroke-linecap="round" stroke-linejoin="round"/>
</symbol>
<use xlink:href="#folder-cross" y="180" x="0" width="30" height="30" />
<view id="folder-cross-view" viewBox="0 180 30 30" />

<symbol id="file-zipper" viewBox="0 0 32 32">
  <path d="M10.7758 3H6C4.34315 3 3 4.34315 3 6V26C3 27.6569 4.34315 29 6 29H26C27.6569 29 29 27.6569 29 26V9.79167C29 8.13481 27.6569 6.79167 26 6.79167H17.0965C16.3118 6.79167 15.5583 6.4842 14.9976 5.9352L12.8747 3.85647C12.314 3.30746 11.5605 3 10.7758 3Z" fill="none" stroke="currentColor" stroke-width="1.5"/>
  <rect x="19" y="7" width="3" height="3" fill="currenColor"/>
  <rect x="19" y="13" width="3" height="3" fill="currenColor"/>
  <rect x="19" y="19" width="3" height="3" fill="currenColor"/>
  <rect x="19" y="25" width="3" height="3" fill="currenColor"/>
  <rect x="22" y="16" width="3" height="3" fill="currenColor"/>
  <rect x="22" y="22" width="3" height="3" fill="currenColor"/>
  <rect x="22" y="10" width="3" height="3" fill="currenColor"/>
</symbol>
<use xlink:href="#file-zipper" y="210" x="0" width="30" height="30" />
<view id="file-zipper-view" viewBox="0 210 30 30" />

<symbol id="file-video" viewBox="0 0 32 32">
  <path d="M3.2002 7.99995C3.2002 5.34898 5.34923 3.19995 8.00019 3.19995H19.8152C20.5764 3.19995 21.3093 3.48938 21.8651 4.00957L27.8501 9.61085C28.4562 10.1781 28.8002 10.9711 28.8002 11.8012V23.9999C28.8002 26.6509 26.6512 28.7999 24.0002 28.7999H8.00019C5.34923 28.7999 3.2002 26.6509 3.2002 23.9999V7.99995Z" stroke="currentColor" fill="none" stroke-width="1.5"/>
  <path d="M20.5 3.5V12H28.5" stroke="currentColor" fill="none" stroke-width="1.5"/>
  <path d="M 19.125 18.2835 C 19.2917 18.3797 19.2917 18.6203 19.125 18.7165 L 10.875 23.4796 C 10.7083 23.5759 10.5 23.4556 10.5 23.2631 L 10.5 13.7369 C 10.5 13.5444 10.7083 13.4241 10.875 13.5204 L 19.125 18.2835 Z" stroke="currentColor" fill="none" stroke-width="1.5" stroke-linejoin="round"/>
</symbol>
<use xlink:href="#file-video" y="240" x="0" width="30" height="30" />
<view id="file-video-view" viewBox="0 240 30 30" />

<symbol id="file-lines" viewBox="0 0 32 32">
  <path d="M3.2002 7.99995C3.2002 5.34898 5.34923 3.19995 8.00019 3.19995H19.8152C20.5764 3.19995 21.3093 3.48938 21.8651 4.00957L27.8501 9.61085C28.4562 10.1781 28.8002 10.9711 28.8002 11.8012V23.9999C28.8002 26.6509 26.6512 28.7999 24.0002 28.7999H8.00019C5.34923 28.7999 3.2002 26.6509 3.2002 23.9999V7.99995Z" stroke="currentColor" fill="none" stroke-width="1.5"/>
  <path d="M20.5 3.5V12H28.5" stroke="currentColor" fill="none" stroke-width="1.5"/>
  <path d="M19.1919 19.9152V19H24.0002V19.9152H22.1375V25.0266H21.0546V19.9152H19.1919Z" fill="currentColor"/>
  <path d="M14.6472 19L15.9744 21.207H16.0214L17.3545 19H18.5992L16.7424 22.0133L18.6286 25.0266H17.3633L16.0214 22.8343H15.9744L14.6325 25.0266H13.373L15.277 22.0133L13.3966 19H14.6472Z" fill="currentColor"/>
  <path d="M8 19.9152V19H12.8083V19.9152H10.9456V25.0266H9.86271V19.9152H8Z" fill="currentColor"/>
</symbol>
<use xlink:href="#file-lines" y="270" x="0" width="30" height="30" />
<view id="file-lines-view" viewBox="0 270 30 30" />

<symbol id="file" viewBox="0 0 32 32">
  <path d="M3.2002 7.99995C3.2002 5.34898 5.34923 3.19995 8.00019 3.19995H19.8152C20.5764 3.19995 21.3093 3.48938 21.8651 4.00957L27.8501 9.61085C28.4562 10.1781 28.8002 10.9711 28.8002 11.8012V23.9999C28.8002 26.6509 26.6512 28.7999 24.0002 28.7999H8.00019C5.34923 28.7999 3.2002 26.6509 3.2002 23.9999V7.99995Z" stroke="currentColor" fill="none" stroke-width="1.5"/>
  <path d="M20.5 3.5V12H28.5" stroke="currentColor" fill="none" stroke-width="1.5"/>
</symbol>
<use xlink:href="#file" y="300" x="0" width="30" height="30" />
<view id="file-view" viewBox="0 300 30 30" />

<symbol id="file-powerpoint" viewBox="0 0 32 32">
  <path d="M3.2002 7.99995C3.2002 5.34898 5.34923 3.19995 8.00019 3.19995H19.8152C20.5764 3.19995 21.3093 3.48938 21.8651 4.00957L27.8501 9.61085C28.4562 10.1781 28.8002 10.9711 28.8002 11.8012V23.9999C28.8002 26.6509 26.6512 28.7999 24.0002 28.7999H8.00019C5.34923 28.7999 3.2002 26.6509 3.2002 23.9999V7.99995Z" stroke="currentColor" fill="none" stroke-width="1.5"/>
  <path d="M20.5 3.5V12H28.5" stroke="currentColor" fill="none" stroke-width="1.5"/>
  <path d="M 10 25 V 13 H 15.2399 C 16.2473 13 17.1055 13.1738 17.8145 13.5215 C 18.5236 13.8652 19.064 14.3438 19.4358 14.957 C 19.8119 15.5664 20 16.2695 20 17.0664 C 20 17.8633 19.8098 18.5664 19.4293 19.1758 C 19.0489 19.7852 18.4976 20.2598 17.7756 20.5996 C 17.0579 20.9395 16.1889 21.1094 15.1686 21.1094 H 11.8288 V 19.0762 H 14.7147 C 15.2551 19.0762 15.7004 18.9922 16.0506 18.8242 C 16.4051 18.6523 16.6688 18.416 16.8418 18.1152 C 17.019 17.8105 17.1077 17.4609 17.1077 17.0664 C 17.1077 16.668 17.019 16.3203 16.8418 16.0234 C 16.6688 15.7227 16.4051 15.4902 16.0506 15.3262 C 15.6961 15.1582 15.2464 15.0742 14.7017 15.0742 H 12.808 V 25 H 10 Z" fill="currentColor"/>
</symbol>
<use xlink:href="#file-powerpoint" y="330" x="0" width="30" height="30" />
<view id="file-powerpoint-view" viewBox="0 330 30 30" />

<symbol id="file-image" viewBox="0 0 32 32">
  <path d="M18.2002 1V9.5H26.2002" stroke="currentColor" fill="none" stroke-width="1.5"/>
  <path d="M2.26986 24.6697C1.97697 24.9626 1.97697 25.4374 2.26986 25.7303C2.56276 26.0232 3.03763 26.0232 3.33053 25.7303L2.26986 24.6697ZM9.20019 18.8L9.73052 18.2697C9.43763 17.9768 8.96276 17.9768 8.66986 18.2697L9.20019 18.8ZM12.4002 22L11.8699 22.5303C12.1302 22.7906 12.5409 22.8235 12.8393 22.608L12.4002 22ZM19.6002 16.8L20.0251 16.182C19.7639 16.0024 19.418 16.0064 19.1611 16.192L19.6002 16.8ZM25.5753 21.818C25.9166 22.0527 26.3836 21.9662 26.6182 21.6249C26.8529 21.2836 26.7664 20.8166 26.4251 20.582L25.5753 21.818ZM25.8821 8.1151L25.3616 8.65511L25.8821 8.1151ZM19.3715 1.83998L19.892 1.29997L19.3715 1.83998ZM3.33053 25.7303L9.73052 19.3303L8.66986 18.2697L2.26986 24.6697L3.33053 25.7303ZM8.66986 19.3303L11.8699 22.5303L12.9305 21.4697L9.73052 18.2697L8.66986 19.3303ZM12.8393 22.608L20.0393 17.408L19.1611 16.192L11.9611 21.392L12.8393 22.608ZM19.1753 17.418L25.5753 21.818L26.4251 20.582L20.0251 16.182L19.1753 17.418ZM6.00019 1.75H17.2896V0.25H6.00019V1.75ZM26.0502 10.2751V21.8H27.5502V10.2751H26.0502ZM22.0002 25.85H6.00019V27.35H22.0002V25.85ZM1.9502 21.8V5.8H0.450195V21.8H1.9502ZM6.00019 25.85C3.76344 25.85 1.9502 24.0367 1.9502 21.8H0.450195C0.450195 24.8652 2.93501 27.35 6.00019 27.35V25.85ZM26.0502 21.8C26.0502 24.0367 24.2369 25.85 22.0002 25.85V27.35C25.0654 27.35 27.5502 24.8652 27.5502 21.8H26.0502ZM18.851 2.37998L25.3616 8.65511L26.4026 7.5751L19.892 1.29997L18.851 2.37998ZM6.00019 0.25C2.93501 0.25 0.450195 2.73482 0.450195 5.8H1.9502C1.9502 3.56325 3.76344 1.75 6.00019 1.75V0.25ZM10.0502 8.2C10.0502 9.11127 9.31146 9.85 8.40019 9.85V11.35C10.1399 11.35 11.5502 9.9397 11.5502 8.2H10.0502ZM8.40019 9.85C7.48892 9.85 6.75019 9.11127 6.75019 8.2H5.25019C5.25019 9.93969 6.6605 11.35 8.40019 11.35V9.85ZM6.75019 8.2C6.75019 7.28873 7.48892 6.55 8.40019 6.55V5.05C6.6605 5.05 5.25019 6.4603 5.25019 8.2H6.75019ZM8.40019 6.55C9.31146 6.55 10.0502 7.28873 10.0502 8.2H11.5502C11.5502 6.4603 10.1399 5.05 8.40019 5.05V6.55ZM27.5502 10.2751C27.5502 9.25661 27.1359 8.28191 26.4026 7.5751L25.3616 8.65511C25.8016 9.0792 26.0502 9.66402 26.0502 10.2751H27.5502ZM17.2896 1.75C17.872 1.75 18.4317 1.97582 18.851 2.37998L19.892 1.29997C19.1931 0.626372 18.2603 0.25 17.2896 0.25V1.75Z" fill="currentColor"/>
</symbol>
<use xlink:href="#file-image" y="360" x="0" width="30" height="30" />
<view id="file-image-view" viewBox="0 360 30 30" />

<symbol id="file-audio" viewBox="0 0 32 32">
  <path d="M3.2002 7.99995C3.2002 5.34898 5.34923 3.19995 8.00019 3.19995H19.8152C20.5764 3.19995 21.3093 3.48938 21.8651 4.00957L27.8501 9.61085C28.4562 10.1781 28.8002 10.9711 28.8002 11.8012V23.9999C28.8002 26.6509 26.6512 28.7999 24.0002 28.7999H8.00019C5.34923 28.7999 3.2002 26.6509 3.2002 23.9999V7.99995Z" stroke="currentColor" fill="none" stroke-width="1.5"/>
  <path d="M20.5 3.5V12H28.5" stroke="currentColor" fill="none" stroke-width="1.5"/>
  <path d="M 17 12.3685 L 13.5385 11 V 21.2636 C 13.5383 21.8661 13.3371 22.4517 12.9659 22.9296 C 12.5947 23.4075 12.0743 23.751 11.4855 23.9069 C 10.8967 24.0627 10.2723 24.0221 9.7091 23.7915 C 9.146 23.5609 8.6756 23.153 8.3709 22.6312 C 8.0661 22.1095 7.9441 21.5029 8.0237 20.9056 C 8.1033 20.3082 8.3801 19.7536 8.8112 19.3276 C 9.2423 18.9016 9.8035 18.6281 10.4079 18.5495 C 11.0122 18.4708 11.6259 18.5915 12.1538 18.8927 C 12.3846 18.9988 13.312 19.7338 13.5385 20.2373" stroke="currentColor" fill="none" stroke-width="1.5" stroke-linecap="round" stroke-linejoin="round"/>
</symbol>
<use xlink:href="#file-audio" y="390" x="0" width="30" height="30" />
<view id="file-audio-view" viewBox="0 390 30 30" />

<symbol id="file-pdf" viewBox="0 0 32 32">
  <path d="M3.2002 7.99995C3.2002 5.34898 5.34923 3.19995 8.00019 3.19995H19.8152C20.5764 3.19995 21.3093 3.48938 21.8651 4.00957L27.8501 9.61085C28.4562 10.1781 28.8002 10.9711 28.8002 11.8012V23.9999C28.8002 26.6509 26.6512 28.7999 24.0002 28.7999H8.00019C5.34923 28.7999 3.2002 26.6509 3.2002 23.9999V7.99995Z" stroke="currentColor" fill="none" stroke-width="1.5"/>
  <path d="M20.5 3.5V12H28.5" stroke="currentColor" fill="none" stroke-width="1.5"/>
  <path d="M9.91685 18H7.54277C7.24316 18 7 18.2002 7 18.4478V22.0709V24.5522C7 24.7998 7.24316 25 7.54277 25C7.84238 25 8.08554 24.7998 8.08554 24.5522V22.5187H9.91685C11.0659 22.5187 12 21.7476 12 20.8001V19.7187C12 18.7711 11.0653 18 9.91685 18ZM10.9145 20.8001C10.9145 21.2542 10.4667 21.6231 9.91685 21.6231H8.08554V18.8956H9.91685C10.4672 18.8956 10.9145 19.2646 10.9145 19.7187V20.8001Z" fill="currentColor"/>
  <path d="M16.7578 25H14.5428C14.2432 25 14 24.7998 14 24.5522V18.4478C14 18.2002 14.2432 18 14.5428 18H16.7584C17.9948 18 19 18.8298 19 19.8494V23.1501C18.9995 24.1702 17.9942 25 16.7578 25ZM15.0855 24.1044H16.7584C17.3956 24.1044 17.9145 23.6763 17.9145 23.1501V19.8494C17.9145 19.3232 17.3956 18.8956 16.7584 18.8956H15.0855V24.1044Z" fill="currentColor"/>
  <path d="M24.5658 18H21.4342C21.1941 18 21 18.2002 21 18.4478V24.5522C21 24.7998 21.1941 25 21.4342 25C21.6743 25 21.8684 24.7998 21.8684 24.5522V21.9478H23.485C23.7251 21.9478 23.9192 21.7476 23.9192 21.5C23.9192 21.2524 23.7251 21.0522 23.485 21.0522H21.8684V18.896H24.5658C24.8059 18.896 25 18.6959 25 18.4482C25 18.2006 24.8059 18 24.5658 18Z" fill="currentColor"/>
  <path d="M8.61666 16C8.38881 16 8.23878 15.877 8.15652 15.7811L8.12077 15.7251C7.94993 15.3503 7.87539 14.763 8.49117 14.0947C9.00319 13.5393 9.88118 13.0549 10.8809 12.6839C11.2392 12.0112 11.5743 11.289 11.8421 10.5999C11.203 9.53816 10.9361 8.42164 11.1994 7.69027C11.3392 7.30204 11.6283 7.05786 12.0136 7.00236L12.0466 7C12.4677 7 12.7584 7.2456 12.8657 7.69122C13.016 8.31679 12.786 9.38065 12.3597 10.5413C12.5285 10.8016 12.7248 11.0613 12.9486 11.3133C13.1578 11.5684 13.3716 11.7981 13.5855 12.0036C14.6647 11.8525 15.645 11.8666 16.2442 12.0952C16.8541 12.3278 16.9918 12.7182 17 13.0049V13.0096C17.003 13.3825 16.8193 13.6647 16.4957 13.7839C15.8448 14.0241 14.6184 13.5912 13.4214 12.4969C12.6916 12.614 11.9213 12.8075 11.2095 13.0592C10.4645 14.4253 9.62388 15.573 9.01862 15.8888C8.86415 15.9691 8.73071 16 8.61666 16ZM8.53066 15.4939C8.56806 15.5272 8.6377 15.5556 8.80409 15.4691C9.26096 15.2309 9.90268 14.3883 10.5208 13.3298C9.81224 13.6392 9.20931 14.0085 8.83306 14.4166C8.48673 14.7926 8.38741 15.1456 8.53066 15.4939ZM14.0498 12.4138C15.0302 13.2044 15.942 13.4855 16.3349 13.3402C16.4274 13.306 16.5335 13.2382 16.5323 13.0155C16.53 12.9359 16.5188 12.7047 16.079 12.5371C15.6146 12.3602 14.8813 12.3288 14.0498 12.4138ZM12.1541 11.0722C11.9648 11.5372 11.7496 12.009 11.5191 12.4672C12.0104 12.3151 12.5172 12.1904 13.0141 12.0971C12.8725 11.9481 12.7322 11.7896 12.5946 11.6217C12.4369 11.4444 12.2896 11.2604 12.1541 11.0722ZM12.0632 7.47278C11.8571 7.50749 11.718 7.63171 11.6388 7.8518C11.4708 8.3182 11.6049 9.13954 12.055 10.0166C12.3682 9.09514 12.5266 8.28349 12.4111 7.80292C12.3441 7.52355 12.2057 7.47585 12.0632 7.47278Z" fill="currentColor"/>
</symbol>
<use xlink:href="#file-pdf" y="420" x="0" width="30" height="30" />
<view id="file-pdf-view" viewBox="0 420 30 30" />

<symbol id="file-excel" viewBox="0 0 32 32">
  <path d="M3.2002 7.99995C3.2002 5.34898 5.34923 3.19995 8.00019 3.19995H19.8152C20.5764 3.19995 21.3093 3.48938 21.8651 4.00957L27.8501 9.61085C28.4562 10.1781 28.8002 10.9711 28.8002 11.8012V23.9999C28.8002 26.6509 26.6512 28.7999 24.0002 28.7999H8.00019C5.34923 28.7999 3.2002 26.6509 3.2002 23.9999V7.99995Z" stroke="currentColor" fill="none" stroke-width="1.5"/>
  <path d="M20.5 3.5V12H28.5" stroke="currentColor" fill="none" stroke-width="1.5"/>
  <path d="M 13.1089 19.56 L 9.5289 14.66 H 12.2889 L 14.4489 17.84 L 16.7089 14.66 H 19.3489 L 15.8289 19.44 L 19.7889 25 H 17.0489 L 14.4289 21.18 L 11.8889 25 H 9.2089 L 13.1089 19.56 Z" fill="currentColor"/>
</symbol>
<use xlink:href="#file-excel" y="450" x="0" width="30" height="30" />
<view id="file-excel-view" viewBox="0 450 30 30" />

<symbol id="file-word" viewBox="0 0 32 32">
  <path d="M3.2002 7.99995C3.2002 5.34898 5.34923 3.19995 8.00019 3.19995H19.8152C20.5764 3.19995 21.3093 3.48938 21.8651 4.00957L27.8501 9.61085C28.4562 10.1781 28.8002 10.9711 28.8002 11.8012V23.9999C28.8002 26.6509 26.6512 28.7999 24.0002 28.7999H8.00019C5.34923 28.7999 3.2002 26.6509 3.2002 23.9999V7.99995Z" stroke="currentColor" fill="none" stroke-width="1.5"/>
  <path d="M20.5 3.5V12H28.5" stroke="currentColor" fill="none" stroke-width="1.5"/>
  <path d="M 7.4768 14.66 H 9.8968 L 11.9168 22.38 H 11.9568 L 13.8968 14.66 H 16.1968 L 18.0568 22.38 H 18.0968 L 20.1968 14.66 H 22.5168 L 19.2768 25 H 16.9368 L 15.0168 17.32 H 14.9768 L 13.0768 25 H 10.6768 L 7.4768 14.66 Z" fill="currentColor"/>
</symbol>
<use xlink:href="#file-word" y="480" x="0" width="30" height="30" />
<view id="file-word-view" viewBox="0 480 30 30" />

<symbol id="grid-view" viewBox="0 0 24 24">
  <path fill="none" d="M11.9999 3.00002L11.9999 21M2.3999 12H20.9999M2.3999 6.00002L2.3999 18C2.3999 19.9882 4.01168 21.6 5.9999 21.6H17.9999C19.9881 21.6 21.5999 19.9882 21.5999 18V6.00002C21.5999 4.0118 19.9881 2.40003 17.9999 2.40002L5.9999 2.40002C4.01168 2.40002 2.3999 4.0118 2.3999 6.00002Z" stroke="currentColor" stroke-width="1.5"/>
</symbol>
<use xlink:href="#grid-view" y="510" x="0" width="30" height="30" />
<view id="grid-view-view" viewBox="0 510 30 30" />

<symbol id="list-view" viewBox="0 0 24 24">
  <path d="M2.9999 7.80002H20.9999M17.9999 12H5.9999M13.1999 16.8H5.9999M5.9999 21.6H17.9999C19.9881 21.6 21.5999 19.9882 21.5999 18V6.00002C21.5999 4.0118 19.9881 2.40002 17.9999 2.40002H5.9999C4.01168 2.40002 2.3999 4.0118 2.3999 6.00002V18C2.3999 19.9882 4.01168 21.6 5.9999 21.6Z" stroke="currentColor" fill="none" stroke-width="1.5" stroke-linecap="round" stroke-linejoin="round"/>
</symbol>
<use xlink:href="#list-view" y="540" x="0" width="30" height="30" />
<view id="list-view-view" viewBox="0 540 30 30" />

<symbol id="chevron-left" viewBox="0 0 320 512">
  <path d="M9.4 233.4c-12.5 12.5-12.5 32.8 0 45.3l192 192c12.5 12.5 32.8 12.5 45.3 0s12.5-32.8 0-45.3L77.3 256 246.6 86.6c12.5-12.5 12.5-32.8 0-45.3s-32.8-12.5-45.3 0l-192 192z"/>
</symbol>
<use xlink:href="#chevron-left" y="0" x="30" width="30" height="30" />
<view id="chevron-left-view" viewBox="30 0 42 28" />

<symbol id="chevron-right" viewBox="0 0 320 512">
  <path d="M310.6 233.4c12.5 12.5 12.5 32.8 0 45.3l-192 192c-12.5 12.5-32.8 12.5-45.3 0s-12.5-32.8 0-45.3L242.7 256 73.4 86.6c-12.5-12.5-12.5-32.8 0-45.3s32.8-12.5 45.3 0l192 192z"/>
</symbol>
<use xlink:href="#chevron-right" y="30" x="30" width="30" height="30" />
<view id="chevron-right-view" viewBox="30 30 30 30" />

<symbol id="chevron-down" viewBox="0 0 512 512">
  <path d="M233.4 406.6c12.5 12.5 32.8 12.5 45.3 0l192-192c12.5-12.5 12.5-32.8 0-45.3s-32.8-12.5-45.3 0L256 338.7 86.6 169.4c-12.5-12.5-32.8-12.5-45.3 0s-12.5 32.8 0 45.3l192 192z"/>
</symbol>
<use xlink:href="#chevron-down" y="60" x="30" width="30" height="30" />
<view id="chevron-down-view" viewBox="30 60 30 30" />

<symbol id="chevron-up" viewBox="0 0 512 512">
  <path d="M233.4 105.4c12.5-12.5 32.8-12.5 45.3 0l192 192c12.5 12.5 12.5 32.8 0 45.3s-32.8 12.5-45.3 0L256 173.3 86.6 342.6c-12.5 12.5-32.8 12.5-45.3 0s-12.5-32.8 0-45.3l192-192z"/>
</symbol>
<use xlink:href="#chevron-up" y="90" x="30" width="30" height="30" />
<view id="chevron-up-view" viewBox="30 90 30 30" />

<symbol id="lock" viewBox="0 0 448 512">
  <path d="M144 144l0 48 160 0 0-48c0-44.2-35.8-80-80-80s-80 35.8-80 80zM80 192l0-48C80 64.5 144.5 0 224 0s144 64.5 144 144l0 48 16 0c35.3 0 64 28.7 64 64l0 192c0 35.3-28.7 64-64 64L64 512c-35.3 0-64-28.7-64-64L0 256c0-35.3 28.7-64 64-64l16 0z"/>
</symbol>
<use xlink:href="#lock" y="120" x="30" width="30" height="30" />
<view id="lock-view" viewBox="30 120 30 30" />

<symbol id="lock-open" viewBox="0 0 576 512">
  <path d="M352 144c0-44.2 35.8-80 80-80s80 35.8 80 80l0 48c0 17.7 14.3 32 32 32s32-14.3 32-32l0-48C576 64.5 511.5 0 432 0S288 64.5 288 144l0 48L64 192c-35.3 0-64 28.7-64 64L0 448c0 35.3 28.7 64 64 64l320 0c35.3 0 64-28.7 64-64l0-192c0-35.3-28.7-64-64-64l-32 0 0-48z"/>
</symbol>
<use xlink:href="#lock-open" y="150" x="30" width="30" height="30" />
<view id="lock-open-view" viewBox="30 150 30 30" />

<symbol id="house" viewBox="0 0 576 512">
  <path d="M575.8 255.5c0 18-15 32.1-32 32.1l-32 0 .7 160.2c0 2.7-.2 5.4-.5 8.1l0 16.2c0 22.1-17.9 40-40 40l-16 0c-1.1 0-2.2 0-3.3-.1c-1.4 .1-2.8 .1-4.2 .1L416 512l-24 0c-22.1 0-40-17.9-40-40l0-24 0-64c0-17.7-14.3-32-32-32l-64 0c-17.7 0-32 14.3-32 32l0 64 0 24c0 22.1-17.9 40-40 40l-24 0-31.9 0c-1.5 0-3-.1-4.5-.2c-1.2 .1-2.4 .2-3.6 .2l-16 0c-22.1 0-40-17.9-40-40l0-112c0-.9 0-1.9 .1-2.8l0-69.7-32 0c-18 0-32-14-32-32.1c0-9 3-17 10-24L266.4 8c7-7 15-8 22-8s15 2 21 7L564.8 231.5c8 7 12 15 11 24z"/>
</symbol>
<use xlink:href="#house" y="180" x="30" width="30" height="30" />
<view id="house-view" viewBox="30 180 30 30" />

<symbol id="magnifying-glass" viewBox="0 0 16 17">
  <path d="M11.3333 11.8333L14.6666 15.1666M12.9999 7.66665C12.9999 10.8883 10.3883 13.5 7.16659 13.5C3.94493 13.5 1.33325 10.8883 1.33325 7.66665C1.33325 4.44499 3.94493 1.83331 7.16659 1.83331C10.3883 1.83331 12.9999 4.44499 12.9999 7.66665Z" stroke="#fff" fill="none" stroke-width="1.33333" stroke-linecap="round" stroke-linejoin="round"/>
</symbol>
<use xlink:href="#magnifying-glass" y="210" x="30" width="30" height="30" />
<view id="magnifying-glass-view" viewBox="30 210 30 30" />

<symbol id="arrow-down-z-a" viewBox="0 0 576 512">
  <path d="M183.6 469.6C177.5 476.2 169 480 160 480s-17.5-3.8-23.6-10.4l-88-96c-11.9-13-11.1-33.3 2-45.2s33.3-11.1 45.2 2L128 365.7 128 64c0-17.7 14.3-32 32-32s32 14.3 32 32l0 301.7 32.4-35.4c11.9-13 32.2-13.9 45.2-2s13.9 32.2 2 45.2l-88 96zM320 64c0-17.7 14.3-32 32-32l128 0c12.9 0 24.6 7.8 29.6 19.8s2.2 25.7-6.9 34.9L429.3 160l50.7 0c17.7 0 32 14.3 32 32s-14.3 32-32 32l-128 0c-12.9 0-24.6-7.8-29.6-19.8s-2.2-25.7 6.9-34.9L402.7 96 352 96c-17.7 0-32-14.3-32-32zm96 192c12.1 0 23.2 6.8 28.6 17.7l64 128 16 32c7.9 15.8 1.5 35-14.3 42.9s-35 1.5-42.9-14.3L460.2 448l-88.4 0-7.2 14.3c-7.9 15.8-27.1 22.2-42.9 14.3s-22.2-27.1-14.3-42.9l16-32 64-128c5.4-10.8 16.5-17.7 28.6-17.7zM395.8 400l40.4 0L416 359.6 395.8 400z"/>
</symbol>
<use xlink:href="#arrow-down-z-a" y="240" x="30" width="30" height="30" />
<view id="arrow-down-z-a-view" viewBox="30 240 30 30" />

<symbol id="arrow-down-a-z" viewBox="0 0 576 512">
  <path d="M183.6 469.6C177.5 476.2 169 480 160 480s-17.5-3.8-23.6-10.4l-88-96c-11.9-13-11.1-33.3 2-45.2s33.3-11.1 45.2 2L128 365.7 128 64c0-17.7 14.3-32 32-32s32 14.3 32 32l0 301.7 32.4-35.4c11.9-13 32.2-13.9 45.2-2s13.9 32.2 2 45.2l-88 96zM320 320c0-17.7 14.3-32 32-32l128 0c12.9 0 24.6 7.8 29.6 19.8s2.2 25.7-6.9 34.9L429.3 416l50.7 0c17.7 0 32 14.3 32 32s-14.3 32-32 32l-128 0c-12.9 0-24.6-7.8-29.6-19.8s-2.2-25.7 6.9-34.9L402.7 352 352 352c-17.7 0-32-14.3-32-32zM416 32c12.1 0 23.2 6.8 28.6 17.7l64 128 16 32c7.9 15.8 1.5 35-14.3 42.9s-35 1.5-42.9-14.3L460.2 224l-88.4 0-7.2 14.3c-7.9 15.8-27.1 22.2-42.9 14.3s-22.2-27.1-14.3-42.9l16-32 64-128C392.8 38.8 403.9 32 416 32zM395.8 176l40.4 0L416 135.6 395.8 176z"/>
</symbol>
<use xlink:href="#arrow-down-a-z" y="270" x="30" width="30" height="30" />
<view id="arrow-down-a-z-view" viewBox="30 270 30 30" />

<symbol id="arrow-down-long" viewBox="0 0 384 512">
  <path d="M169.4 502.6c12.5 12.5 32.8 12.5 45.3 0l128-128c12.5-12.5 12.5-32.8 0-45.3s-32.8-12.5-45.3 0L224 402.7 224 32c0-17.7-14.3-32-32-32s-32 14.3-32 32l0 370.7L86.6 329.4c-12.5-12.5-32.8-12.5-45.3 0s-12.5 32.8 0 45.3l128 128z"/>
</symbol>
<use xlink:href="#arrow-down-long" y="300" x="30" width="30" height="30" />
<view id="arrow-down-long-view" viewBox="30 300 30 30" />

<symbol id="ellipsis-vertical" viewBox="0 0 128 512">
  <path d="M64 360a56 56 0 1 0 0 112 56 56 0 1 0 0-112zm0-160a56 56 0 1 0 0 112 56 56 0 1 0 0-112zM120 96A56 56 0 1 0 8 96a56 56 0 1 0 112 0z"/>
</symbol>
<use xlink:href="#ellipsis-vertical" y="330" x="30" width="30" height="30" />
<view id="ellipsis-vertical-view" viewBox="30 330 30 30" />

<symbol id="eye-slash" viewBox="0 0 640 512">
  <path d="M38.8 5.1C28.4-3.1 13.3-1.2 5.1 9.2S-1.2 34.7 9.2 42.9l592 464c10.4 8.2 25.5 6.3 33.7-4.1s6.3-25.5-4.1-33.7L525.6 386.7c39.6-40.6 66.4-86.1 79.9-118.4c3.3-7.9 3.3-16.7 0-24.6c-14.9-35.7-46.2-87.7-93-131.1C465.5 68.8 400.8 32 320 32c-68.2 0-125 26.3-169.3 60.8L38.8 5.1zm151 118.3C226 97.7 269.5 80 320 80c65.2 0 118.8 29.6 159.9 67.7C518.4 183.5 545 226 558.6 256c-12.6 28-36.6 66.8-70.9 100.9l-53.8-42.2c9.1-17.6 14.2-37.5 14.2-58.7c0-70.7-57.3-128-128-128c-32.2 0-61.7 11.9-84.2 31.5l-46.1-36.1zM394.9 284.2l-81.5-63.9c4.2-8.5 6.6-18.2 6.6-28.3c0-5.5-.7-10.9-2-16c.7 0 1.3 0 2 0c44.2 0 80 35.8 80 80c0 9.9-1.8 19.4-5.1 28.2zm9.4 130.3C378.8 425.4 350.7 432 320 432c-65.2 0-118.8-29.6-159.9-67.7C121.6 328.5 95 286 81.4 256c8.3-18.4 21.5-41.5 39.4-64.8L83.1 161.5C60.3 191.2 44 220.8 34.5 243.7c-3.3 7.9-3.3 16.7 0 24.6c14.9 35.7 46.2 87.7 93 131.1C174.5 443.2 239.2 480 320 480c47.8 0 89.9-12.9 126.2-32.5l-41.9-33zM192 256c0 70.7 57.3 128 128 128c13.3 0 26.1-2 38.2-5.8L302 334c-23.5-5.4-43.1-21.2-53.7-42.3l-56.1-44.2c-.2 2.8-.3 5.6-.3 8.5z"/>
</symbol>
<use xlink:href="#eye-slash" y="360" x="30" width="30" height="30" />
<view id="eye-slash-view" viewBox="30 360 30 30" />

<symbol id="eye" viewBox="0 0 576 512">
  <path d="M288 80c-65.2 0-118.8 29.6-159.9 67.7C89.6 183.5 63 226 49.4 256c13.6 30 40.2 72.5 78.6 108.3C169.2 402.4 222.8 432 288 432s118.8-29.6 159.9-67.7C486.4 328.5 513 286 526.6 256c-13.6-30-40.2-72.5-78.6-108.3C406.8 109.6 353.2 80 288 80zM95.4 112.6C142.5 68.8 207.2 32 288 32s145.5 36.8 192.6 80.6c46.8 43.5 78.1 95.4 93 131.1c3.3 7.9 3.3 16.7 0 24.6c-14.9 35.7-46.2 87.7-93 131.1C433.5 443.2 368.8 480 288 480s-145.5-36.8-192.6-80.6C48.6 356 17.3 304 2.5 268.3c-3.3-7.9-3.3-16.7 0-24.6C17.3 208 48.6 156 95.4 112.6zM288 336c44.2 0 80-35.8 80-80s-35.8-80-80-80c-.7 0-1.3 0-2 0c1.3 5.1 2 10.5 2 16c0 35.3-28.7 64-64 64c-5.5 0-10.9-.7-16-2c0 .7 0 1.3 0 2c0 44.2 35.8 80 80 80zm0-208a128 128 0 1 1 0 256 128 128 0 1 1 0-256z"/>
</symbol>
<use xlink:href="#eye" y="390" x="30" width="30" height="30" />
<view id="eye-view" viewBox="30 390 30 30" />

<symbol id="heart" viewBox="0 0 512 512">
  <path d="M225.8 468.2l-2.5-2.3L48.1 303.2C17.4 274.7 0 234.7 0 192.8l0-3.3c0-70.4 50-130.8 119.2-144C158.6 37.9 198.9 47 231 69.6c9 6.4 17.4 13.8 25 22.3c4.2-4.8 8.7-9.2 13.5-13.3c3.7-3.2 7.5-6.2 11.5-9c0 0 0 0 0 0C313.1 47 353.4 37.9 392.8 45.4C462 58.6 512 119.1 512 189.5l0 3.3c0 41.9-17.4 81.9-48.1 110.4L288.7 465.9l-2.5 2.3c-8.2 7.6-19 11.9-30.2 11.9s-22-4.2-30.2-11.9zM239.1 145c-.4-.3-.7-.7-1-1.1l-17.8-20-.1-.1s0 0 0 0c-23.1-25.9-58-37.7-92-31.2C81.6 101.5 48 142.1 48 189.5l0 3.3c0 28.5 11.9 55.8 32.8 75.2L256 430.7 431.2 268c20.9-19.4 32.8-46.7 32.8-75.2l0-3.3c0-47.3-33.6-88-80.1-96.9c-34-6.5-69 5.4-92 31.2c0 0 0 0-.1 .1s0 0-.1 .1l-17.8 20c-.3 .4-.7 .7-1 1.1c-4.5 4.5-10.6 7-16.9 7s-12.4-2.5-16.9-7z"/>
</symbol>
<use xlink:href="#heart" y="420" x="30" width="30" height="30" />
<view id="heart-view" viewBox="30 420 30 30" />

<symbol id="bookmark" viewBox="0 0 384 512">
  <path d="M0 48C0 21.5 21.5 0 48 0l0 48 0 393.4 130.1-92.9c8.3-6 19.6-6 27.9 0L336 441.4 336 48 48 48 48 0 336 0c26.5 0 48 21.5 48 48l0 440c0 9-5 17.2-13 21.3s-17.6 3.4-24.9-1.8L192 397.5 37.9 507.5c-7.3 5.2-16.9 5.9-24.9 1.8S0 497 0 488L0 48z"/>
</symbol>
<use xlink:href="#bookmark" y="450" x="30" width="30" height="30" />
<view id="bookmark-view" viewBox="30 450 30 30" />

<symbol id="circle-check" viewBox="0 0 512 512">
  <path d="M256 48a208 208 0 1 1 0 416 208 208 0 1 1 0-416zm0 464A256 256 0 1 0 256 0a256 256 0 1 0 0 512zM369 209c9.4-9.4 9.4-24.6 0-33.9s-24.6-9.4-33.9 0l-111 111-47-47c-9.4-9.4-24.6-9.4-33.9 0s-9.4 24.6 0 33.9l64 64c9.4 9.4 24.6 9.4 33.9 0L369 209z"/>
</symbol>
<use xlink:href="#circle-check" y="480" x="30" width="30" height="30" />
<view id="circle-check-view" viewBox="30 480 30 30" />

<symbol id="circle-question" viewBox="0 0 512 512">
  <path d="M464 256A208 208 0 1 0 48 256a208 208 0 1 0 416 0zM0 256a256 256 0 1 1 512 0A256 256 0 1 1 0 256zm169.8-90.7c7.9-22.3 29.1-37.3 52.8-37.3l58.3 0c34.9 0 63.1 28.3 63.1 63.1c0 22.6-12.1 43.5-31.7 54.8L280 264.4c-.2 13-10.9 23.6-24 23.6c-13.3 0-24-10.7-24-24l0-13.5c0-8.6 4.6-16.5 12.1-20.8l44.3-25.4c4.7-2.7 7.6-7.7 7.6-13.1c0-8.4-6.8-15.1-15.1-15.1l-58.3 0c-3.4 0-6.4 2.1-7.5 5.3l-.4 1.2c-4.4 12.5-18.2 19-30.6 14.6s-19-18.2-14.6-30.6l.4-1.2zM224 352a32 32 0 1 1 64 0 32 32 0 1 1 -64 0z"/>
</symbol>
<use xlink:href="#circle-question" y="510" x="30" width="30" height="30" />
<view id="circle-question-view" viewBox="30 510 30 30" />

<symbol id="copy" viewBox="0 0 448 512">
  <path d="M384 336l-192 0c-8.8 0-16-7.2-16-16l0-256c0-8.8 7.2-16 16-16l140.1 0L400 115.9 400 320c0 8.8-7.2 16-16 16zM192 384l192 0c35.3 0 64-28.7 64-64l0-204.1c0-12.7-5.1-24.9-14.1-33.9L366.1 14.1c-9-9-21.2-14.1-33.9-14.1L192 0c-35.3 0-64 28.7-64 64l0 256c0 35.3 28.7 64 64 64zM64 128c-35.3 0-64 28.7-64 64L0 448c0 35.3 28.7 64 64 64l192 0c35.3 0 64-28.7 64-64l0-32-48 0 0 32c0 8.8-7.2 16-16 16L64 464c-8.8 0-16-7.2-16-16l0-256c0-8.8 7.2-16 16-16l32 0 0-48-32 0z"/>
</symbol>
<use xlink:href="#copy" y="540" x="30" width="30" height="30" />
<view id="copy-view" viewBox="30 540 30 30" />

<symbol id="image" viewBox="0 0 512 512">
  <path d="M448 80c8.8 0 16 7.2 16 16l0 319.8-5-6.5-136-176c-4.5-5.9-11.6-9.3-19-9.3s-14.4 3.4-19 9.3L202 340.7l-30.5-42.7C167 291.7 159.8 288 152 288s-15 3.7-19.5 10.1l-80 112L48 416.3l0-.3L48 96c0-8.8 7.2-16 16-16l384 0zM64 32C28.7 32 0 60.7 0 96L0 416c0 35.3 28.7 64 64 64l384 0c35.3 0 64-28.7 64-64l0-320c0-35.3-28.7-64-64-64L64 32zm80 192a48 48 0 1 0 0-96 48 48 0 1 0 0 96z"/>
</symbol>
<use xlink:href="#image" y="0" x="60" width="30" height="30" />
<view id="image-view" viewBox="60 0 30 30" />

<symbol id="upload" viewBox="0 0 512 512">
  <path d="M288 109.3L288 352c0 17.7-14.3 32-32 32s-32-14.3-32-32l0-242.7-73.4 73.4c-12.5 12.5-32.8 12.5-45.3 0s-12.5-32.8 0-45.3l128-128c12.5-12.5 32.8-12.5 45.3 0l128 128c12.5 12.5 12.5 32.8 0 45.3s-32.8 12.5-45.3 0L288 109.3zM64 352l128 0c0 35.3 28.7 64 64 64s64-28.7 64-64l128 0c35.3 0 64 28.7 64 64l0 32c0 35.3-28.7 64-64 64L64 512c-35.3 0-64-28.7-64-64l0-32c0-35.3 28.7-64 64-64zM432 456a24 24 0 1 0 0-48 24 24 0 1 0 0 48z"/>
</symbol>
<use xlink:href="#upload" y="30" x="60" width="30" height="30" />
<view id="upload-view" viewBox="60 30 30 30" />

<symbol id="download" viewBox="0 0 512 512">
  <path d="M288 32c0-17.7-14.3-32-32-32s-32 14.3-32 32l0 242.7-73.4-73.4c-12.5-12.5-32.8-12.5-45.3 0s-12.5 32.8 0 45.3l128 128c12.5 12.5 32.8 12.5 45.3 0l128-128c12.5-12.5 12.5-32.8 0-45.3s-32.8-12.5-45.3 0L288 274.7 288 32zM64 352c-35.3 0-64 28.7-64 64l0 32c0 35.3 28.7 64 64 64l384 0c35.3 0 64-28.7 64-64l0-32c0-35.3-28.7-64-64-64l-101.5 0-45.3 45.3c-25 25-65.5 25-90.5 0L165.5 352 64 352zm368 56a24 24 0 1 1 0 48 24 24 0 1 1 0-48z"/>
</symbol>
<use xlink:href="#download" y="60" x="60" width="30" height="30" />
<view id="download-view" viewBox="60 60 30 30" />

<symbol id="pencil" viewBox="0 0 512 512">
  <path d="M410.3 231l11.3-11.3-33.9-33.9-62.1-62.1L291.7 89.8l-11.3 11.3-22.6 22.6L58.6 322.9c-10.4 10.4-18 23.3-22.2 37.4L1 480.7c-2.5 8.4-.2 17.5 6.1 23.7s15.3 8.5 23.7 6.1l120.3-35.4c14.1-4.2 27-11.8 37.4-22.2L387.7 253.7 410.3 231zM160 399.4l-9.1 22.7c-4 3.1-8.5 5.4-13.3 6.9L59.4 452l23-78.1c1.4-4.9 3.8-9.4 6.9-13.3l22.7-9.1 0 32c0 8.8 7.2 16 16 16l32 0zM362.7 18.7L348.3 33.2 325.7 55.8 314.3 67.1l33.9 33.9 62.1 62.1 33.9 33.9 11.3-11.3 22.6-22.6 14.5-14.5c25-25 25-65.5 0-90.5L453.3 18.7c-25-25-65.5-25-90.5 0zm-47.4 168l-144 144c-6.2 6.2-16.4 6.2-22.6 0s-6.2-16.4 0-22.6l144-144c6.2-6.2 16.4-6.2 22.6 0s6.2 16.4 0 22.6z"/>
</symbol>
<use xlink:href="#pencil" y="90" x="60" width="30" height="30" />
<view id="pencil-view" viewBox="60 90 30 30" />

<symbol id="share-nodes" viewBox="0 0 448 512">
  <path d="M352 224c53 0 96-43 96-96s-43-96-96-96s-96 43-96 96c0 4 .2 8 .7 11.9l-94.1 47C145.4 170.2 121.9 160 96 160c-53 0-96 43-96 96s43 96 96 96c25.9 0 49.4-10.2 66.6-26.9l94.1 47c-.5 3.9-.7 7.8-.7 11.9c0 53 43 96 96 96s96-43 96-96s-43-96-96-96c-25.9 0-49.4 10.2-66.6 26.9l-94.1-47c.5-3.9 .7-7.8 .7-11.9s-.2-8-.7-11.9l94.1-47C302.6 213.8 326.1 224 352 224z"/>
</symbol>
<use xlink:href="#share-nodes" y="120" x="60" width="30" height="30" />
<view id="share-nodes-view" viewBox="60 120 30 30" />

<symbol id="close" viewBox="0 0 24 24">
  <path d="M20 4 4 20M4 4l16 16" fill="none" stroke="currentColor" stroke-width="3" stroke-linecap="round" stroke-linejoin="round"/>
</symbol>
<use xlink:href="#close" y="150" x="60" width="30" height="30" />
<view id="close-view" viewBox="60 150 30 30" />

<symbol id="sorts" viewBox="0 0 16 17">
  <path d="M9.60034 4.49991L12.0003 2.09991M12.0003 2.09991L14.4003 4.49992M12.0003 2.09991L12.0003 14.8999M6.40034 12.4999L4.00034 14.8999M4.00034 14.8999L1.60034 12.4999M4.00034 14.8999L4.00034 2.09991" stroke="currentColor" stroke-width="1.5" stroke-linecap="round" stroke-linejoin="round"/>
</symbol>
<use xlink:href="#sorts" y="180" x="60" width="30" height="30" />
<view id="sorts-view" viewBox="60 180 30 30" />

<symbol id="drop" viewBox="0 0 50 50">
  <path d="M41.2188 7.45184C40.3983 6.62448 39.2855 6.15967 38.1252 6.15967L11.8752 6.15967C10.7148 6.15967 9.60205 6.62448 8.78157 7.45184M24.9977 43.8403L24.9977 18.8403M24.9977 18.8403L14.9977 28.3927M24.9977 18.8403L34.9977 28.3927" stroke="currentColor" stroke-width="3" stroke-linecap="round" stroke-linejoin="round"/>
</symbol>
<use xlink:href="#drop" y="210" x="60" width="30" height="30" />
<view id="drop-view" viewBox="60 210 30 30" />

<symbol id="clock" viewBox="0 0 512 512">
  <path d="M464 256A208 208 0 1 1 48 256a208 208 0 1 1 416 0zM0 256a256 256 0 1 0 512 0A256 256 0 1 0 0 256zM232 120l0 136c0 8 4 15.5 10.7 20l96 64c11 7.4 25.9 4.4 33.3-6.7s4.4-25.9-6.7-33.3L280 243.2 280 120c0-13.3-10.7-24-24-24s-24 10.7-24 24z"/>
</symbol>
<use xlink:href="#clock" y="240" x="60" width="30" height="30" />
<view id="clock-view" viewBox="60 240 30 30" />

<symbol id="help" viewBox="-1.7 0 20.4 20.4">
  <path d="M16.476 10.283A7.917 7.917 0 1 1 8.56 2.366a7.916 7.916 0 0 1 7.916 7.917zm-5.034-2.687a2.845 2.845 0 0 0-.223-1.13A2.877 2.877 0 0 0 9.692 4.92a2.747 2.747 0 0 0-1.116-.227 2.79 2.79 0 0 0-1.129.227 2.903 2.903 0 0 0-1.543 1.546 2.803 2.803 0 0 0-.227 1.128v.02a.792.792 0 0 0 1.583 0v-.02a1.23 1.23 0 0 1 .099-.503 1.32 1.32 0 0 1 .715-.717 1.223 1.223 0 0 1 .502-.098 1.18 1.18 0 0 1 .485.096 1.294 1.294 0 0 1 .418.283 1.307 1.307 0 0 1 .281.427 1.273 1.273 0 0 1 .099.513 1.706 1.706 0 0 1-.05.45 1.546 1.546 0 0 1-.132.335 2.11 2.11 0 0 1-.219.318c-.126.15-.25.293-.365.424-.135.142-.26.28-.374.412a4.113 4.113 0 0 0-.451.639 3.525 3.525 0 0 0-.342.842 3.904 3.904 0 0 0-.12.995v.035a.792.792 0 0 0 1.583 0v-.035a2.324 2.324 0 0 1 .068-.59 1.944 1.944 0 0 1 .187-.463 2.49 2.49 0 0 1 .276-.39c.098-.115.209-.237.329-.363l.018-.02c.129-.144.264-.301.403-.466a3.712 3.712 0 0 0 .384-.556 3.083 3.083 0 0 0 .28-.692 3.275 3.275 0 0 0 .108-.875zM9.58 14.895a.982.982 0 0 0-.294-.707 1.059 1.059 0 0 0-.32-.212l-.004-.001a.968.968 0 0 0-.382-.079 1.017 1.017 0 0 0-.397.08 1.053 1.053 0 0 0-.326.212 1.002 1.002 0 0 0-.215 1.098 1.028 1.028 0 0 0 .216.32 1.027 1.027 0 0 0 .722.295.968.968 0 0 0 .382-.078l.005-.002a1.01 1.01 0 0 0 .534-.534.98.98 0 0 0 .08-.392z"/>
</symbol>
<use xlink:href="#help" y="270" x="60" width="30" height="30" />
<view id="help-view" viewBox="60 270 30 30" />

</svg>