<?xml version="1.0" encoding="UTF-8" standalone="no"?>
<svg
   width="50"
   height="50"
   viewBox="0 0 50 50"
   fill="none"
   version="1.1"
   id="svg6"
   sodipodi:docname="arrow_black.svg"
   inkscape:version="1.1.2 (0a00cf5339, 2022-02-04)"
   xmlns:inkscape="http://www.inkscape.org/namespaces/inkscape"
   xmlns:sodipodi="http://sodipodi.sourceforge.net/DTD/sodipodi-0.dtd"
   xmlns="http://www.w3.org/2000/svg"
   xmlns:svg="http://www.w3.org/2000/svg">
  <defs
     id="defs10" />
  <sodipodi:namedview
     id="namedview8"
     pagecolor="#ffffff"
     bordercolor="#666666"
     borderopacity="1.0"
     inkscape:pageshadow="2"
     inkscape:pageopacity="0.0"
     inkscape:pagecheckerboard="0"
     showgrid="false"
     inkscape:zoom="15.64"
     inkscape:cx="24.968031"
     inkscape:cy="25"
     inkscape:window-width="1920"
     inkscape:window-height="1043"
     inkscape:window-x="0"
     inkscape:window-y="0"
     inkscape:window-maximized="1"
     inkscape:current-layer="svg6" />
  <circle
     cx="25"
     cy="-25"
     r="25"
     fill="#000000"
     id="circle2"
     transform="scale(1,-1)" />
  <path
     d="m 32.999975,24 c 0.5523,0 1,0.4477 1,1 0,0.5523 -0.4477,1 -1,1 z m -16.7071,1.7071 c -0.3905,-0.3905 -0.3905,-1.0237 0,-1.4142 l 6.364,-6.364 c 0.3905,-0.3905 1.0236,-0.3905 1.4142,0 0.3905,0.3906 0.3905,1.0237 0,1.4142 l -5.6569,5.6569 5.6569,5.6569 c 0.3905,0.3905 0.3905,1.0236 0,1.4142 -0.3906,0.3905 -1.0237,0.3905 -1.4142,0 z M 32.999975,25 v 1 h -16 v -1 -1 h 16 z"
     fill="#ffffff"
     id="path4" />
</svg>
