<svg width="56" height="44" viewBox="0 0 56 44" fill="none" xmlns="http://www.w3.org/2000/svg">
<path d="M18.272 20.376C20.4053 21.3147 22.0693 22.7227 23.264 24.6C24.4587 26.4773 25.056 28.696 25.056 31.256C25.056 34.9253 23.904 37.912 21.6 40.216C19.296 42.4347 16.352 43.544 12.768 43.544C9.184 43.544 6.19733 42.392 3.808 40.088C1.504 37.784 0.352 34.84 0.352 31.256C0.352 29.5493 0.565334 27.8427 0.992 26.136C1.41867 24.4293 2.35733 21.8693 3.808 18.456L11.232 0.0239944H23.904L18.272 20.376ZM48.48 20.376C50.6133 21.3147 52.2773 22.7227 53.472 24.6C54.6667 26.4773 55.264 28.696 55.264 31.256C55.264 34.9253 54.112 37.912 51.808 40.216C49.504 42.4347 46.56 43.544 42.976 43.544C39.392 43.544 36.4053 42.392 34.016 40.088C31.712 37.784 30.56 34.84 30.56 31.256C30.56 29.5493 30.7733 27.8427 31.2 26.136C31.6267 24.4293 32.5653 21.8693 34.016 18.456L41.44 0.0239944H54.112L48.48 20.376Z" fill="black"/>
</svg>
