<svg width="638" height="458" viewBox="0 0 638 458" fill="none" xmlns="http://www.w3.org/2000/svg">
<circle cx="415.5" cy="222.5" r="222.5" fill="#FFD20B"/>
<ellipse cx="207.487" cy="327.881" rx="1.83265" ry="1.83617" transform="rotate(90 207.487 327.881)" fill="#828282"/>
<ellipse cx="207.487" cy="353.538" rx="1.83266" ry="1.83617" transform="rotate(90 207.487 353.538)" fill="#828282"/>
<ellipse cx="207.487" cy="379.196" rx="1.83265" ry="1.83617" transform="rotate(90 207.487 379.196)" fill="#828282"/>
<ellipse cx="207.487" cy="404.853" rx="1.83266" ry="1.83617" transform="rotate(90 207.487 404.853)" fill="#828282"/>
<ellipse cx="207.487" cy="430.51" rx="1.83264" ry="1.83617" transform="rotate(90 207.487 430.51)" fill="#828282"/>
<ellipse cx="207.487" cy="456.167" rx="1.83266" ry="1.83617" transform="rotate(90 207.487 456.167)" fill="#828282"/>
<ellipse cx="181.78" cy="327.881" rx="1.83265" ry="1.83615" transform="rotate(90 181.78 327.881)" fill="#828282"/>
<ellipse cx="181.78" cy="353.538" rx="1.83266" ry="1.83615" transform="rotate(90 181.78 353.538)" fill="#828282"/>
<ellipse cx="181.78" cy="379.196" rx="1.83265" ry="1.83616" transform="rotate(90 181.78 379.196)" fill="#828282"/>
<ellipse cx="181.78" cy="404.853" rx="1.83267" ry="1.83615" transform="rotate(90 181.78 404.853)" fill="#828282"/>
<ellipse cx="181.78" cy="430.51" rx="1.83264" ry="1.83616" transform="rotate(90 181.78 430.51)" fill="#828282"/>
<ellipse cx="181.78" cy="456.167" rx="1.83267" ry="1.83615" transform="rotate(90 181.78 456.167)" fill="#828282"/>
<ellipse cx="156.074" cy="327.881" rx="1.83265" ry="1.83615" transform="rotate(90 156.074 327.881)" fill="#828282"/>
<ellipse cx="156.074" cy="353.538" rx="1.83266" ry="1.83615" transform="rotate(90 156.074 353.538)" fill="#828282"/>
<ellipse cx="156.074" cy="379.196" rx="1.83265" ry="1.83615" transform="rotate(90 156.074 379.196)" fill="#828282"/>
<ellipse cx="156.074" cy="404.853" rx="1.83265" ry="1.83615" transform="rotate(90 156.074 404.853)" fill="#828282"/>
<ellipse cx="156.074" cy="430.51" rx="1.83264" ry="1.83615" transform="rotate(90 156.074 430.51)" fill="#828282"/>
<ellipse cx="156.074" cy="456.167" rx="1.83266" ry="1.83615" transform="rotate(90 156.074 456.167)" fill="#828282"/>
<ellipse cx="130.368" cy="327.881" rx="1.83265" ry="1.83615" transform="rotate(90 130.368 327.881)" fill="#828282"/>
<ellipse cx="130.368" cy="353.538" rx="1.83266" ry="1.83615" transform="rotate(90 130.368 353.538)" fill="#828282"/>
<ellipse cx="130.368" cy="379.196" rx="1.83265" ry="1.83615" transform="rotate(90 130.368 379.196)" fill="#828282"/>
<ellipse cx="130.368" cy="404.853" rx="1.83265" ry="1.83615" transform="rotate(90 130.368 404.853)" fill="#828282"/>
<ellipse cx="130.368" cy="430.51" rx="1.83264" ry="1.83615" transform="rotate(90 130.368 430.51)" fill="#828282"/>
<ellipse cx="130.368" cy="456.167" rx="1.83266" ry="1.83615" transform="rotate(90 130.368 456.167)" fill="#828282"/>
<ellipse cx="104.661" cy="327.881" rx="1.83265" ry="1.83617" transform="rotate(90 104.661 327.881)" fill="#828282"/>
<ellipse cx="104.661" cy="353.538" rx="1.83266" ry="1.83617" transform="rotate(90 104.661 353.538)" fill="#828282"/>
<ellipse cx="104.661" cy="379.196" rx="1.83264" ry="1.83617" transform="rotate(90 104.661 379.196)" fill="#828282"/>
<ellipse cx="104.661" cy="404.853" rx="1.83265" ry="1.83617" transform="rotate(90 104.661 404.853)" fill="#828282"/>
<ellipse cx="104.661" cy="430.51" rx="1.83264" ry="1.83617" transform="rotate(90 104.661 430.51)" fill="#828282"/>
<ellipse cx="104.661" cy="456.167" rx="1.83266" ry="1.83617" transform="rotate(90 104.661 456.167)" fill="#828282"/>
<ellipse cx="78.9551" cy="327.881" rx="1.83265" ry="1.83616" transform="rotate(90 78.9551 327.881)" fill="#828282"/>
<ellipse cx="78.9551" cy="353.538" rx="1.83266" ry="1.83616" transform="rotate(90 78.9551 353.538)" fill="#828282"/>
<ellipse cx="78.9551" cy="379.196" rx="1.83265" ry="1.83616" transform="rotate(90 78.9551 379.196)" fill="#828282"/>
<ellipse cx="78.9551" cy="404.853" rx="1.83266" ry="1.83616" transform="rotate(90 78.9551 404.853)" fill="#828282"/>
<ellipse cx="78.9551" cy="430.51" rx="1.83264" ry="1.83616" transform="rotate(90 78.9551 430.51)" fill="#828282"/>
<ellipse cx="78.9551" cy="456.167" rx="1.83266" ry="1.83616" transform="rotate(90 78.9551 456.167)" fill="#828282"/>
<ellipse cx="53.2489" cy="327.881" rx="1.83265" ry="1.83617" transform="rotate(90 53.2489 327.881)" fill="#828282"/>
<ellipse cx="53.2489" cy="353.538" rx="1.83266" ry="1.83617" transform="rotate(90 53.2489 353.538)" fill="#828282"/>
<ellipse cx="53.2489" cy="379.196" rx="1.83265" ry="1.83617" transform="rotate(90 53.2489 379.196)" fill="#828282"/>
<ellipse cx="53.2489" cy="404.853" rx="1.83265" ry="1.83617" transform="rotate(90 53.2489 404.853)" fill="#828282"/>
<ellipse cx="53.2489" cy="430.51" rx="1.83264" ry="1.83617" transform="rotate(90 53.2489 430.51)" fill="#828282"/>
<ellipse cx="53.2489" cy="456.167" rx="1.83266" ry="1.83617" transform="rotate(90 53.2489 456.167)" fill="#828282"/>
<ellipse cx="27.5426" cy="327.881" rx="1.83265" ry="1.83616" transform="rotate(90 27.5426 327.881)" fill="#828282"/>
<ellipse cx="27.5426" cy="353.538" rx="1.83266" ry="1.83616" transform="rotate(90 27.5426 353.538)" fill="#828282"/>
<ellipse cx="27.5426" cy="379.196" rx="1.83264" ry="1.83616" transform="rotate(90 27.5426 379.196)" fill="#828282"/>
<ellipse cx="27.5426" cy="404.853" rx="1.83265" ry="1.83616" transform="rotate(90 27.5426 404.853)" fill="#828282"/>
<ellipse cx="27.5426" cy="430.51" rx="1.83264" ry="1.83616" transform="rotate(90 27.5426 430.51)" fill="#828282"/>
<ellipse cx="27.5426" cy="456.167" rx="1.83266" ry="1.83616" transform="rotate(90 27.5426 456.167)" fill="#828282"/>
<ellipse cx="1.83632" cy="327.881" rx="1.83265" ry="1.83616" transform="rotate(90 1.83632 327.881)" fill="#828282"/>
<ellipse cx="1.83632" cy="353.538" rx="1.83266" ry="1.83616" transform="rotate(90 1.83632 353.538)" fill="#828282"/>
<ellipse cx="1.83632" cy="379.196" rx="1.83265" ry="1.83616" transform="rotate(90 1.83632 379.196)" fill="#828282"/>
<ellipse cx="1.83632" cy="404.853" rx="1.83265" ry="1.83616" transform="rotate(90 1.83632 404.853)" fill="#828282"/>
<ellipse cx="1.83632" cy="430.51" rx="1.83264" ry="1.83616" transform="rotate(90 1.83632 430.51)" fill="#828282"/>
<ellipse cx="1.83632" cy="456.167" rx="1.83266" ry="1.83616" transform="rotate(90 1.83632 456.167)" fill="#828282"/>
<ellipse cx="207.487" cy="173.833" rx="1.83265" ry="1.83616" transform="rotate(90 207.487 173.833)" fill="#828282"/>
<ellipse cx="207.487" cy="199.49" rx="1.83265" ry="1.83617" transform="rotate(90 207.487 199.49)" fill="#828282"/>
<ellipse cx="207.487" cy="225.147" rx="1.83265" ry="1.83617" transform="rotate(90 207.487 225.147)" fill="#828282"/>
<ellipse cx="207.487" cy="250.804" rx="1.83265" ry="1.83617" transform="rotate(90 207.487 250.804)" fill="#828282"/>
<ellipse cx="207.487" cy="276.461" rx="1.83265" ry="1.83617" transform="rotate(90 207.487 276.461)" fill="#828282"/>
<ellipse cx="207.487" cy="302.118" rx="1.83265" ry="1.83617" transform="rotate(90 207.487 302.118)" fill="#828282"/>
<ellipse cx="181.78" cy="173.833" rx="1.83265" ry="1.83615" transform="rotate(90 181.78 173.833)" fill="#828282"/>
<ellipse cx="181.78" cy="199.49" rx="1.83265" ry="1.83615" transform="rotate(90 181.78 199.49)" fill="#828282"/>
<ellipse cx="181.78" cy="225.147" rx="1.83265" ry="1.83616" transform="rotate(90 181.78 225.147)" fill="#828282"/>
<ellipse cx="181.78" cy="250.804" rx="1.83265" ry="1.83615" transform="rotate(90 181.78 250.804)" fill="#828282"/>
<ellipse cx="181.78" cy="276.461" rx="1.83265" ry="1.83616" transform="rotate(90 181.78 276.461)" fill="#828282"/>
<ellipse cx="181.78" cy="302.118" rx="1.83265" ry="1.83615" transform="rotate(90 181.78 302.118)" fill="#828282"/>
<ellipse cx="156.074" cy="173.833" rx="1.83265" ry="1.83614" transform="rotate(90 156.074 173.833)" fill="#828282"/>
<ellipse cx="156.074" cy="199.49" rx="1.83265" ry="1.83615" transform="rotate(90 156.074 199.49)" fill="#828282"/>
<ellipse cx="156.074" cy="225.147" rx="1.83265" ry="1.83615" transform="rotate(90 156.074 225.147)" fill="#828282"/>
<ellipse cx="156.074" cy="250.804" rx="1.83266" ry="1.83615" transform="rotate(90 156.074 250.804)" fill="#828282"/>
<ellipse cx="156.074" cy="276.461" rx="1.83265" ry="1.83615" transform="rotate(90 156.074 276.461)" fill="#828282"/>
<ellipse cx="156.074" cy="302.118" rx="1.83265" ry="1.83615" transform="rotate(90 156.074 302.118)" fill="#828282"/>
<ellipse cx="130.368" cy="173.833" rx="1.83265" ry="1.83615" transform="rotate(90 130.368 173.833)" fill="#828282"/>
<ellipse cx="130.368" cy="199.49" rx="1.83265" ry="1.83615" transform="rotate(90 130.368 199.49)" fill="#828282"/>
<ellipse cx="130.368" cy="225.147" rx="1.83265" ry="1.83615" transform="rotate(90 130.368 225.147)" fill="#828282"/>
<ellipse cx="130.368" cy="250.804" rx="1.83265" ry="1.83615" transform="rotate(90 130.368 250.804)" fill="#828282"/>
<ellipse cx="130.368" cy="276.461" rx="1.83264" ry="1.83615" transform="rotate(90 130.368 276.461)" fill="#828282"/>
<ellipse cx="130.368" cy="302.118" rx="1.83265" ry="1.83615" transform="rotate(90 130.368 302.118)" fill="#828282"/>
<ellipse cx="104.661" cy="173.833" rx="1.83265" ry="1.83617" transform="rotate(90 104.661 173.833)" fill="#828282"/>
<ellipse cx="104.661" cy="199.49" rx="1.83265" ry="1.83617" transform="rotate(90 104.661 199.49)" fill="#828282"/>
<ellipse cx="104.661" cy="225.147" rx="1.83265" ry="1.83617" transform="rotate(90 104.661 225.147)" fill="#828282"/>
<ellipse cx="104.661" cy="250.804" rx="1.83265" ry="1.83617" transform="rotate(90 104.661 250.804)" fill="#828282"/>
<ellipse cx="104.661" cy="276.461" rx="1.83265" ry="1.83617" transform="rotate(90 104.661 276.461)" fill="#828282"/>
<ellipse cx="104.661" cy="302.118" rx="1.83265" ry="1.83617" transform="rotate(90 104.661 302.118)" fill="#828282"/>
<ellipse cx="78.9551" cy="173.833" rx="1.83265" ry="1.83616" transform="rotate(90 78.9551 173.833)" fill="#828282"/>
<ellipse cx="78.9551" cy="199.49" rx="1.83265" ry="1.83616" transform="rotate(90 78.9551 199.49)" fill="#828282"/>
<ellipse cx="78.9551" cy="225.147" rx="1.83265" ry="1.83616" transform="rotate(90 78.9551 225.147)" fill="#828282"/>
<ellipse cx="78.9551" cy="250.804" rx="1.83265" ry="1.83616" transform="rotate(90 78.9551 250.804)" fill="#828282"/>
<ellipse cx="78.9551" cy="276.461" rx="1.83265" ry="1.83616" transform="rotate(90 78.9551 276.461)" fill="#828282"/>
<ellipse cx="78.9551" cy="302.118" rx="1.83265" ry="1.83616" transform="rotate(90 78.9551 302.118)" fill="#828282"/>
<ellipse cx="53.2488" cy="173.833" rx="1.83265" ry="1.83617" transform="rotate(90 53.2488 173.833)" fill="#828282"/>
<ellipse cx="53.2489" cy="199.49" rx="1.83265" ry="1.83617" transform="rotate(90 53.2489 199.49)" fill="#828282"/>
<ellipse cx="53.2489" cy="225.147" rx="1.83265" ry="1.83617" transform="rotate(90 53.2489 225.147)" fill="#828282"/>
<ellipse cx="53.2489" cy="250.804" rx="1.83266" ry="1.83617" transform="rotate(90 53.2489 250.804)" fill="#828282"/>
<ellipse cx="53.2489" cy="276.461" rx="1.83265" ry="1.83617" transform="rotate(90 53.2489 276.461)" fill="#828282"/>
<ellipse cx="53.2489" cy="302.118" rx="1.83265" ry="1.83617" transform="rotate(90 53.2489 302.118)" fill="#828282"/>
<ellipse cx="27.5426" cy="173.833" rx="1.83265" ry="1.83616" transform="rotate(90 27.5426 173.833)" fill="#828282"/>
<ellipse cx="27.5426" cy="199.49" rx="1.83265" ry="1.83616" transform="rotate(90 27.5426 199.49)" fill="#828282"/>
<ellipse cx="27.5426" cy="225.147" rx="1.83265" ry="1.83616" transform="rotate(90 27.5426 225.147)" fill="#828282"/>
<ellipse cx="27.5426" cy="250.804" rx="1.83265" ry="1.83616" transform="rotate(90 27.5426 250.804)" fill="#828282"/>
<ellipse cx="27.5426" cy="276.461" rx="1.83265" ry="1.83616" transform="rotate(90 27.5426 276.461)" fill="#828282"/>
<ellipse cx="27.5426" cy="302.118" rx="1.83265" ry="1.83616" transform="rotate(90 27.5426 302.118)" fill="#828282"/>
<ellipse cx="1.83626" cy="173.833" rx="1.83265" ry="1.83616" transform="rotate(90 1.83626 173.833)" fill="#828282"/>
<ellipse cx="1.83626" cy="199.49" rx="1.83265" ry="1.83616" transform="rotate(90 1.83626 199.49)" fill="#828282"/>
<ellipse cx="1.83626" cy="225.147" rx="1.83265" ry="1.83616" transform="rotate(90 1.83626 225.147)" fill="#828282"/>
<ellipse cx="1.83626" cy="250.804" rx="1.83265" ry="1.83616" transform="rotate(90 1.83626 250.804)" fill="#828282"/>
<ellipse cx="1.83626" cy="276.461" rx="1.83265" ry="1.83616" transform="rotate(90 1.83626 276.461)" fill="#828282"/>
<ellipse cx="1.83626" cy="302.118" rx="1.83265" ry="1.83616" transform="rotate(90 1.83626 302.118)" fill="#828282"/>
<ellipse cx="439.592" cy="327.882" rx="1.83265" ry="1.83617" transform="rotate(90 439.592 327.882)" fill="#828282"/>
<ellipse cx="439.592" cy="353.539" rx="1.83266" ry="1.83618" transform="rotate(90 439.592 353.539)" fill="#828282"/>
<ellipse cx="439.592" cy="379.196" rx="1.83265" ry="1.83618" transform="rotate(90 439.592 379.196)" fill="#828282"/>
<ellipse cx="439.592" cy="404.853" rx="1.83266" ry="1.83618" transform="rotate(90 439.592 404.853)" fill="#828282"/>
<ellipse cx="439.592" cy="430.51" rx="1.83264" ry="1.83618" transform="rotate(90 439.592 430.51)" fill="#828282"/>
<ellipse cx="439.592" cy="456.167" rx="1.83266" ry="1.83618" transform="rotate(90 439.592 456.167)" fill="#828282"/>
<ellipse cx="413.886" cy="327.882" rx="1.83265" ry="1.83617" transform="rotate(90 413.886 327.882)" fill="#828282"/>
<ellipse cx="413.886" cy="353.539" rx="1.83266" ry="1.83617" transform="rotate(90 413.886 353.539)" fill="#828282"/>
<ellipse cx="413.886" cy="379.196" rx="1.83265" ry="1.83617" transform="rotate(90 413.886 379.196)" fill="#828282"/>
<ellipse cx="413.886" cy="404.853" rx="1.83267" ry="1.83617" transform="rotate(90 413.886 404.853)" fill="#828282"/>
<ellipse cx="413.886" cy="430.51" rx="1.83264" ry="1.83617" transform="rotate(90 413.886 430.51)" fill="#828282"/>
<ellipse cx="413.886" cy="456.167" rx="1.83267" ry="1.83617" transform="rotate(90 413.886 456.167)" fill="#828282"/>
<ellipse cx="388.179" cy="327.882" rx="1.83265" ry="1.83615" transform="rotate(90 388.179 327.882)" fill="#828282"/>
<ellipse cx="388.179" cy="353.539" rx="1.83266" ry="1.83615" transform="rotate(90 388.179 353.539)" fill="#828282"/>
<ellipse cx="388.179" cy="379.196" rx="1.83265" ry="1.83615" transform="rotate(90 388.179 379.196)" fill="#828282"/>
<ellipse cx="388.179" cy="404.853" rx="1.83265" ry="1.83615" transform="rotate(90 388.179 404.853)" fill="#828282"/>
<ellipse cx="388.179" cy="430.51" rx="1.83264" ry="1.83615" transform="rotate(90 388.179 430.51)" fill="#828282"/>
<ellipse cx="388.179" cy="456.167" rx="1.83266" ry="1.83615" transform="rotate(90 388.179 456.167)" fill="#828282"/>
<ellipse cx="362.473" cy="327.882" rx="1.83265" ry="1.83617" transform="rotate(90 362.473 327.882)" fill="#828282"/>
<ellipse cx="362.473" cy="353.539" rx="1.83266" ry="1.83617" transform="rotate(90 362.473 353.539)" fill="#828282"/>
<ellipse cx="362.473" cy="379.196" rx="1.83265" ry="1.83617" transform="rotate(90 362.473 379.196)" fill="#828282"/>
<ellipse cx="362.473" cy="404.853" rx="1.83265" ry="1.83617" transform="rotate(90 362.473 404.853)" fill="#828282"/>
<ellipse cx="362.473" cy="430.51" rx="1.83264" ry="1.83617" transform="rotate(90 362.473 430.51)" fill="#828282"/>
<ellipse cx="362.473" cy="456.167" rx="1.83266" ry="1.83617" transform="rotate(90 362.473 456.167)" fill="#828282"/>
<ellipse cx="336.767" cy="327.882" rx="1.83265" ry="1.83615" transform="rotate(90 336.767 327.882)" fill="#828282"/>
<ellipse cx="336.767" cy="353.539" rx="1.83266" ry="1.83615" transform="rotate(90 336.767 353.539)" fill="#828282"/>
<ellipse cx="336.767" cy="379.196" rx="1.83264" ry="1.83617" transform="rotate(90 336.767 379.196)" fill="#828282"/>
<ellipse cx="336.767" cy="404.853" rx="1.83265" ry="1.83615" transform="rotate(90 336.767 404.853)" fill="#828282"/>
<ellipse cx="336.767" cy="430.51" rx="1.83264" ry="1.83615" transform="rotate(90 336.767 430.51)" fill="#828282"/>
<ellipse cx="336.767" cy="456.167" rx="1.83266" ry="1.83615" transform="rotate(90 336.767 456.167)" fill="#828282"/>
<ellipse cx="311.06" cy="327.882" rx="1.83265" ry="1.83615" transform="rotate(90 311.06 327.882)" fill="#828282"/>
<ellipse cx="311.06" cy="353.539" rx="1.83266" ry="1.83615" transform="rotate(90 311.06 353.539)" fill="#828282"/>
<ellipse cx="311.06" cy="379.196" rx="1.83265" ry="1.83617" transform="rotate(90 311.06 379.196)" fill="#828282"/>
<ellipse cx="311.06" cy="404.853" rx="1.83266" ry="1.83617" transform="rotate(90 311.06 404.853)" fill="#828282"/>
<ellipse cx="311.06" cy="430.51" rx="1.83264" ry="1.83617" transform="rotate(90 311.06 430.51)" fill="#828282"/>
<ellipse cx="311.06" cy="456.167" rx="1.83266" ry="1.83617" transform="rotate(90 311.06 456.167)" fill="#828282"/>
<ellipse cx="285.354" cy="327.882" rx="1.83265" ry="1.83617" transform="rotate(90 285.354 327.882)" fill="#828282"/>
<ellipse cx="285.354" cy="353.539" rx="1.83266" ry="1.83615" transform="rotate(90 285.354 353.539)" fill="#828282"/>
<ellipse cx="285.354" cy="379.196" rx="1.83265" ry="1.83617" transform="rotate(90 285.354 379.196)" fill="#828282"/>
<ellipse cx="285.354" cy="404.853" rx="1.83265" ry="1.83615" transform="rotate(90 285.354 404.853)" fill="#828282"/>
<ellipse cx="285.354" cy="430.51" rx="1.83264" ry="1.83617" transform="rotate(90 285.354 430.51)" fill="#828282"/>
<ellipse cx="285.354" cy="456.167" rx="1.83266" ry="1.83617" transform="rotate(90 285.354 456.167)" fill="#828282"/>
<ellipse cx="259.648" cy="327.882" rx="1.83265" ry="1.83615" transform="rotate(90 259.648 327.882)" fill="#828282"/>
<ellipse cx="259.648" cy="353.539" rx="1.83266" ry="1.83615" transform="rotate(90 259.648 353.539)" fill="#828282"/>
<ellipse cx="259.648" cy="379.196" rx="1.83264" ry="1.83615" transform="rotate(90 259.648 379.196)" fill="#828282"/>
<ellipse cx="259.648" cy="404.853" rx="1.83265" ry="1.83615" transform="rotate(90 259.648 404.853)" fill="#828282"/>
<ellipse cx="259.648" cy="430.51" rx="1.83264" ry="1.83618" transform="rotate(90 259.648 430.51)" fill="#828282"/>
<ellipse cx="259.648" cy="456.167" rx="1.83266" ry="1.83618" transform="rotate(90 259.648 456.167)" fill="#828282"/>
<ellipse cx="233.942" cy="327.882" rx="1.83265" ry="1.83617" transform="rotate(90 233.942 327.882)" fill="#828282"/>
<ellipse cx="233.942" cy="353.539" rx="1.83266" ry="1.83617" transform="rotate(90 233.942 353.539)" fill="#828282"/>
<ellipse cx="233.942" cy="379.196" rx="1.83265" ry="1.83617" transform="rotate(90 233.942 379.196)" fill="#828282"/>
<ellipse cx="233.942" cy="404.853" rx="1.83265" ry="1.83617" transform="rotate(90 233.942 404.853)" fill="#828282"/>
<ellipse cx="233.942" cy="430.51" rx="1.83264" ry="1.83617" transform="rotate(90 233.942 430.51)" fill="#828282"/>
<ellipse cx="233.942" cy="456.167" rx="1.83266" ry="1.83617" transform="rotate(90 233.942 456.167)" fill="#828282"/>
<ellipse cx="439.592" cy="173.833" rx="1.83265" ry="1.83618" transform="rotate(90 439.592 173.833)" fill="#828282"/>
<ellipse cx="439.592" cy="199.49" rx="1.83265" ry="1.83618" transform="rotate(90 439.592 199.49)" fill="#828282"/>
<ellipse cx="439.592" cy="225.147" rx="1.83265" ry="1.83618" transform="rotate(90 439.592 225.147)" fill="#828282"/>
<ellipse cx="439.592" cy="250.804" rx="1.83265" ry="1.83618" transform="rotate(90 439.592 250.804)" fill="#828282"/>
<ellipse cx="439.592" cy="276.461" rx="1.83265" ry="1.83618" transform="rotate(90 439.592 276.461)" fill="#828282"/>
<ellipse cx="439.592" cy="302.118" rx="1.83265" ry="1.83618" transform="rotate(90 439.592 302.118)" fill="#828282"/>
<ellipse cx="413.886" cy="173.833" rx="1.83265" ry="1.83617" transform="rotate(90 413.886 173.833)" fill="#828282"/>
<ellipse cx="413.886" cy="199.49" rx="1.83265" ry="1.83617" transform="rotate(90 413.886 199.49)" fill="#828282"/>
<ellipse cx="413.886" cy="225.147" rx="1.83265" ry="1.83617" transform="rotate(90 413.886 225.147)" fill="#828282"/>
<ellipse cx="413.886" cy="250.804" rx="1.83265" ry="1.83617" transform="rotate(90 413.886 250.804)" fill="#828282"/>
<ellipse cx="413.886" cy="276.461" rx="1.83265" ry="1.83617" transform="rotate(90 413.886 276.461)" fill="#828282"/>
<ellipse cx="413.886" cy="302.118" rx="1.83265" ry="1.83617" transform="rotate(90 413.886 302.118)" fill="#828282"/>
<ellipse cx="388.179" cy="173.833" rx="1.83265" ry="1.83615" transform="rotate(90 388.179 173.833)" fill="#828282"/>
<ellipse cx="388.179" cy="199.49" rx="1.83265" ry="1.83615" transform="rotate(90 388.179 199.49)" fill="#828282"/>
<ellipse cx="388.179" cy="225.147" rx="1.83265" ry="1.83615" transform="rotate(90 388.179 225.147)" fill="#828282"/>
<ellipse cx="388.179" cy="250.804" rx="1.83266" ry="1.83615" transform="rotate(90 388.179 250.804)" fill="#828282"/>
<ellipse cx="388.179" cy="276.461" rx="1.83265" ry="1.83615" transform="rotate(90 388.179 276.461)" fill="#828282"/>
<ellipse cx="388.179" cy="302.118" rx="1.83265" ry="1.83615" transform="rotate(90 388.179 302.118)" fill="#828282"/>
<ellipse cx="362.473" cy="173.833" rx="1.83265" ry="1.83617" transform="rotate(90 362.473 173.833)" fill="#828282"/>
<ellipse cx="362.473" cy="199.49" rx="1.83265" ry="1.83617" transform="rotate(90 362.473 199.49)" fill="#828282"/>
<ellipse cx="362.473" cy="225.147" rx="1.83265" ry="1.83617" transform="rotate(90 362.473 225.147)" fill="#828282"/>
<ellipse cx="362.473" cy="250.804" rx="1.83265" ry="1.83617" transform="rotate(90 362.473 250.804)" fill="#828282"/>
<ellipse cx="362.473" cy="276.461" rx="1.83264" ry="1.83617" transform="rotate(90 362.473 276.461)" fill="#828282"/>
<ellipse cx="362.473" cy="302.118" rx="1.83265" ry="1.83617" transform="rotate(90 362.473 302.118)" fill="#828282"/>
<ellipse cx="336.767" cy="173.833" rx="1.83265" ry="1.83615" transform="rotate(90 336.767 173.833)" fill="#828282"/>
<ellipse cx="336.767" cy="199.49" rx="1.83265" ry="1.83617" transform="rotate(90 336.767 199.49)" fill="#828282"/>
<ellipse cx="336.767" cy="225.147" rx="1.83265" ry="1.83617" transform="rotate(90 336.767 225.147)" fill="#828282"/>
<ellipse cx="336.767" cy="250.804" rx="1.83265" ry="1.83617" transform="rotate(90 336.767 250.804)" fill="#828282"/>
<ellipse cx="336.767" cy="276.461" rx="1.83265" ry="1.83617" transform="rotate(90 336.767 276.461)" fill="#828282"/>
<ellipse cx="336.767" cy="302.118" rx="1.83265" ry="1.83615" transform="rotate(90 336.767 302.118)" fill="#828282"/>
<ellipse cx="311.06" cy="173.833" rx="1.83265" ry="1.83614" transform="rotate(90 311.06 173.833)" fill="#828282"/>
<ellipse cx="311.06" cy="199.49" rx="1.83265" ry="1.83615" transform="rotate(90 311.06 199.49)" fill="#828282"/>
<ellipse cx="311.06" cy="225.147" rx="1.83265" ry="1.83617" transform="rotate(90 311.06 225.147)" fill="#828282"/>
<ellipse cx="311.06" cy="250.804" rx="1.83265" ry="1.83617" transform="rotate(90 311.06 250.804)" fill="#828282"/>
<ellipse cx="311.06" cy="276.461" rx="1.83265" ry="1.83617" transform="rotate(90 311.06 276.461)" fill="#828282"/>
<ellipse cx="311.06" cy="302.118" rx="1.83265" ry="1.83617" transform="rotate(90 311.06 302.118)" fill="#828282"/>
<ellipse cx="285.354" cy="173.833" rx="1.83265" ry="1.83615" transform="rotate(90 285.354 173.833)" fill="#828282"/>
<ellipse cx="285.354" cy="199.49" rx="1.83265" ry="1.83617" transform="rotate(90 285.354 199.49)" fill="#828282"/>
<ellipse cx="285.354" cy="225.147" rx="1.83265" ry="1.83617" transform="rotate(90 285.354 225.147)" fill="#828282"/>
<ellipse cx="285.354" cy="250.804" rx="1.83266" ry="1.83617" transform="rotate(90 285.354 250.804)" fill="#828282"/>
<ellipse cx="285.354" cy="276.461" rx="1.83265" ry="1.83617" transform="rotate(90 285.354 276.461)" fill="#828282"/>
<ellipse cx="285.354" cy="302.118" rx="1.83265" ry="1.83617" transform="rotate(90 285.354 302.118)" fill="#828282"/>
<ellipse cx="259.648" cy="173.833" rx="1.83265" ry="1.83618" transform="rotate(90 259.648 173.833)" fill="#828282"/>
<ellipse cx="259.648" cy="199.49" rx="1.83265" ry="1.83615" transform="rotate(90 259.648 199.49)" fill="#828282"/>
<ellipse cx="259.648" cy="225.147" rx="1.83265" ry="1.83615" transform="rotate(90 259.648 225.147)" fill="#828282"/>
<ellipse cx="259.648" cy="250.804" rx="1.83265" ry="1.83615" transform="rotate(90 259.648 250.804)" fill="#828282"/>
<ellipse cx="259.648" cy="276.461" rx="1.83265" ry="1.83615" transform="rotate(90 259.648 276.461)" fill="#828282"/>
<ellipse cx="259.648" cy="302.118" rx="1.83265" ry="1.83615" transform="rotate(90 259.648 302.118)" fill="#828282"/>
<ellipse cx="233.942" cy="173.833" rx="1.83265" ry="1.83617" transform="rotate(90 233.942 173.833)" fill="#828282"/>
<ellipse cx="233.942" cy="199.49" rx="1.83265" ry="1.83617" transform="rotate(90 233.942 199.49)" fill="#828282"/>
<ellipse cx="233.942" cy="225.147" rx="1.83265" ry="1.83617" transform="rotate(90 233.942 225.147)" fill="#828282"/>
<ellipse cx="233.942" cy="250.804" rx="1.83265" ry="1.83617" transform="rotate(90 233.942 250.804)" fill="#828282"/>
<ellipse cx="233.942" cy="276.461" rx="1.83265" ry="1.83617" transform="rotate(90 233.942 276.461)" fill="#828282"/>
<ellipse cx="233.942" cy="302.118" rx="1.83265" ry="1.83617" transform="rotate(90 233.942 302.118)" fill="#828282"/>
</svg>
