<svg width="11" height="9" viewBox="0 0 11 9" fill="none" xmlns="http://www.w3.org/2000/svg">
<path d="M10.8091 3.77736L5.91845 0.133011C5.68015 -0.0443371 5.31749 -0.0443371 5.07919 0.133011L0.219624 3.77736C-0.225925 4.10544 0.0538303 4.735 0.63408 4.735C0.986377 4.735 1.26613 4.97441 1.26613 5.27587V8.4591C1.26613 8.76061 1.55624 9 1.89818 9H4.1259V6.21577C4.1259 6.04731 4.2917 5.90543 4.48855 5.90543H6.50906C6.70592 5.90543 6.87171 6.04731 6.87171 6.21577V9H8.98544C9.33776 9 9.61746 8.76061 9.61746 8.4591V5.27587C9.61746 4.97439 9.89724 4.735 10.2496 4.735H10.3635C10.9541 4.735 11.2235 4.11432 10.778 3.77736" fill="#009CDE"/>
</svg>
