<?xml version="1.0" encoding="utf-8"?>
<!-- Generator: Adobe Illustrator 15.1.0, SVG Export Plug-In . SVG Version: 6.00 Build 0)  -->
<!DOCTYPE svg PUBLIC "-//W3C//DTD SVG 1.1//EN" "http://www.w3.org/Graphics/SVG/1.1/DTD/svg11.dtd">
<svg version="1.1" id="Vrstva_1" xmlns="http://www.w3.org/2000/svg" xmlns:xlink="http://www.w3.org/1999/xlink" x="0px" y="0px"
	 width="20px" height="20px" viewBox="0 0 20 20" enable-background="new 0 0 20 20" xml:space="preserve">
<path fill="#122A70" d="M16,4c1.1,0,2,0.9,2,2v10c0,1.1-0.9,2-2,2H4c-1.1,0-2-0.9-2-2V6c0-1.1,0.9-2,2-2H16 M16,2H4
	C1.794,2,0,3.794,0,6v10c0,2.206,1.794,4,4,4h12c2.206,0,4-1.794,4-4V6C20,3.794,18.206,2,16,2L16,2z"/>
<rect x="2" y="8" fill="#122A70" width="16" height="2"/>
<g>
	<path fill="#122A70" d="M6.896,5c0,0.55-0.426,1-0.948,1C5.426,6,5,5.55,5,5V1c0-0.55,0.426-1,0.948-1C6.47,0,6.896,0.45,6.896,1V5
		z"/>
</g>
<g>
	<path fill="#122A70" d="M14.896,5c0,0.55-0.426,1-0.949,1C13.426,6,13,5.55,13,5V1c0-0.55,0.426-1,0.947-1
		c0.523,0,0.949,0.45,0.949,1V5z"/>
</g>
</svg>
