<?xml version="1.0" encoding="UTF-8"?>
<svg id="Vrstva_1" xmlns="http://www.w3.org/2000/svg" viewBox="0 0 50.0387 35.2684">
  <defs>
    <style>
      .cls-1 {
        fill: none;
        stroke: #3f4d76;
        stroke-miterlimit: 10;
        stroke-width: 2.2px;
      }
    </style>
  </defs>
  <path class="cls-1" d="M36.5255,1.1H3.7808c-1.4806,0-2.6808,1.2003-2.6808,2.6808v18.1277c0,1.4806,1.2003,2.6808,2.6808,2.6808h1.7872v5.7915c0,.7446.8667,1.1533,1.4412.6795l7.8461-6.471h21.6702c1.4806,0,2.6808-1.2003,2.6808-2.6808V3.7808c0-1.4806-1.2003-2.6808-2.6808-2.6808Z"/>
  <path class="cls-1" d="M43.1939,8.7939h3.845c1.0492,0,1.8997.8505,1.8997,1.8997v16.8458c0,1.0492-.8505,1.8997-1.8997,1.8997h-17.2253l-5.5599,4.5855c-.4071.3357-1.0212.0461-1.0212-.4815v-4.104h-4.3602"/>
</svg>