<svg width="15" height="18" viewBox="0 0 15 18" fill="none" xmlns="http://www.w3.org/2000/svg">
<path d="M0 9C0 9.49707 0.40293 9.9 0.9 9.9H7.731L5.661 11.961C5.30811 12.311 5.30577 12.8809 5.65578 13.2338C5.65749 13.2355 5.65929 13.2373 5.661 13.239C6.01101 13.5919 6.58089 13.5942 6.93378 13.2442C6.93549 13.2425 6.93729 13.2407 6.939 13.239L10.539 9.639C10.6209 9.55341 10.6852 9.45252 10.728 9.342C10.818 9.12285 10.818 8.87715 10.728 8.658C10.6852 8.54748 10.6209 8.44659 10.539 8.361L6.939 4.761C6.58611 4.40811 6.01389 4.40811 5.661 4.761C5.30811 5.11389 5.30811 5.68611 5.661 6.039L7.731 8.1H0.9C0.40293 8.1 0 8.50293 0 9ZM11.7 0H2.7C1.20879 0 0 1.20879 0 2.7V5.4C0 5.89707 0.40293 6.3 0.9 6.3C1.39707 6.3 1.8 5.89707 1.8 5.4V2.7C1.8 2.20293 2.20293 1.8 2.7 1.8H11.7C12.1971 1.8 12.6 2.20293 12.6 2.7V15.3C12.6 15.7971 12.1971 16.2 11.7 16.2H2.7C2.20293 16.2 1.8 15.7971 1.8 15.3V12.6C1.8 12.1029 1.39707 11.7 0.9 11.7C0.40293 11.7 0 12.1029 0 12.6V15.3C0 16.7912 1.20879 18 2.7 18H11.7C13.1912 18 14.4 16.7912 14.4 15.3V2.7C14.4 1.20879 13.1912 0 11.7 0Z" fill="#009CDE"/>
</svg>
