<svg width="24" height="30" viewBox="0 0 24 30" fill="none" xmlns="http://www.w3.org/2000/svg">
<path d="M0 15C0 15.8285 0.67155 16.5 1.5 16.5H12.885L9.435 19.935C8.84685 20.5184 8.84295 21.4681 9.4263 22.0563C9.42915 22.0591 9.43215 22.0622 9.435 22.065C10.0183 22.6532 10.9682 22.6571 11.5563 22.0737C11.5591 22.0709 11.5622 22.0679 11.565 22.065L17.565 16.065C17.7015 15.9223 17.8086 15.7542 17.88 15.57C18.03 15.2048 18.03 14.7952 17.88 14.43C17.8086 14.2458 17.7015 14.0777 17.565 13.935L11.565 7.935C10.9769 7.34685 10.0231 7.34685 9.435 7.935C8.84685 8.52315 8.84685 9.47685 9.435 10.065L12.885 13.5H1.5C0.67155 13.5 0 14.1715 0 15ZM19.5 0H4.5C2.01465 0 0 2.01465 0 4.5V9C0 9.82845 0.67155 10.5 1.5 10.5C2.32845 10.5 3 9.82845 3 9V4.5C3 3.67155 3.67155 3 4.5 3H19.5C20.3284 3 21 3.67155 21 4.5V25.5C21 26.3284 20.3284 27 19.5 27H4.5C3.67155 27 3 26.3284 3 25.5V21C3 20.1716 2.32845 19.5 1.5 19.5C0.67155 19.5 0 20.1716 0 21V25.5C0 27.9853 2.01465 30 4.5 30H19.5C21.9853 30 24 27.9853 24 25.5V4.5C24 2.01465 21.9853 0 19.5 0Z" fill="#BAD9E5"/>
</svg>
