<svg width="20" height="19" viewBox="0 0 20 19" fill="none" xmlns="http://www.w3.org/2000/svg">
<path d="M18.7606 16.9824L15.4212 13.6699C18.2205 10.1797 17.6602 5.08101 14.17 2.28171C10.6797 -0.517512 5.58105 0.0426377 2.78174 3.53288C-0.0175638 7.02313 0.542675 12.1218 4.03292 14.9211C6.99452 17.2964 11.2084 17.2964 14.17 14.9211L17.4824 18.2336C17.8325 18.5865 18.4025 18.5889 18.7554 18.2388C18.7571 18.2371 18.7589 18.2353 18.7606 18.2336C19.0851 17.8874 19.0744 17.3387 18.7606 16.9824ZM9.12026 14.9211C5.64037 14.9211 2.81937 12.1001 2.81937 8.62022C2.81937 5.14033 5.64037 2.31933 9.12026 2.31933C12.6002 2.31933 15.4212 5.14033 15.4212 8.62022C15.4212 12.1001 12.6002 14.9211 9.12026 14.9211Z" fill="#0F2154" stroke="#0F2154"/>
</svg>
