<svg width="18" height="18" viewBox="0 0 18 18" fill="none" xmlns="http://www.w3.org/2000/svg">
<path d="M9 0C4.0296 0 0 4.0296 0 9C0 13.9704 4.0296 18 9 18C13.9704 18 18 13.9704 18 9C18 4.0296 13.9704 0 9 0ZM8.99922 3.2782C10.6469 3.2782 11.9874 4.61882 11.9874 6.2664C11.9874 7.91398 10.6468 9.2546 8.99922 9.2546C7.35164 9.2546 6.01102 7.91398 6.01102 6.2664C6.01102 4.61882 7.35164 3.2782 8.99922 3.2782ZM13.8616 13.9228C13.8616 14.0212 13.7819 14.1009 13.6835 14.1009L4.3163 14.1017C4.21786 14.1017 4.13818 14.022 4.13818 13.9236V12.9564C4.13818 11.4166 4.8788 9.9524 6.12022 9.0408C6.1921 8.98768 6.29132 8.99626 6.35382 9.06034C7.05616 9.78066 7.996 10.1767 9.00062 10.1767C10.0037 10.1767 10.9436 9.77986 11.646 9.06034C11.7077 8.99706 11.8077 8.98846 11.8796 9.0408C13.1218 9.9533 13.8632 11.4174 13.8632 12.9564L13.8624 13.9228H13.8616Z" fill="#009CDE"/>
</svg>
