<svg width="32" height="30" version="1.1" viewBox="0 0 8.4667 7.9375" xmlns="http://www.w3.org/2000/svg">
<g transform="translate(-39.93 -130.78)" stroke-width=".26458">
<path d="m41.256 134.75h.78859c.0011 0 .0021.00092.0021.002v2.1126c0 .001-.000922.002-.0021.002h-.78859c-.0011 0-.0021-.00092-.0021-.002v-2.1126c0-.001.000922-.002.0021-.002z"/>
<path d="m42.048 136.07h4.2292c.0011 0 .0021.00092.0021.002v.78962c0 .001-.000922.002-.0021.002h-4.2292c-.0011 0-.0021-.00092-.0021-.002v-.78962c0-.001.000922-.002.0021-.002z"/>
<path d="m46.282 134.75h.78962c.0011 0 .0021.00092.0021.002v2.1126c0 .001-.000922.002-.0021.002h-.78962c-.0011 0-.0021-.00092-.0021-.002v-2.1126c0-.001.000922-.002.0021-.002z"/>
</g>
</svg>
