<?xml version="1.0" encoding="UTF-8"?>
<svg id="Layer_1" data-name="Layer 1" xmlns="http://www.w3.org/2000/svg" viewBox="0 0 512 512">
  <defs>
    <style>
      .cls-1 {
        fill: none;
        stroke: #fff;
        stroke-linecap: round;
        stroke-linejoin: round;
        stroke-width: 16px;
      }

      .cls-2 {
        fill: #fcf7f7;
      }

      .cls-2, .cls-3, .cls-4 {
        stroke-width: 0px;
      }

      .cls-3 {
        fill: #fcf8f9;
      }

      .cls-4 {
        fill: #669bbc;
      }
    </style>
  </defs>
  <rect class="cls-4" width="512" height="512"/>
  <path class="cls-3" d="M184.69,319.55c-3.44,2.11-6.32,3.97-9.29,5.67-21.03,12.03-45.85,5.33-60.31-13.65-17.65-23.17-15.5-57.08,4.72-77.05,17.08-16.87,42.03-18.71,61.33-4.52.91.67,1.87,1.28,3.21,2.2.72-5.41,2.07-10.02,7.99-11.14,5.19-.99,9.93,2.18,10.85,7.4.2,1.14.2,2.32.2,3.48,0,29.11,0,58.22,0,87.33,0,3.18-.06,6.34-2.54,8.81-2.78,2.77-6,4.08-9.82,2.53-4.5-1.83-6.34-5.49-6.35-11.04ZM184.92,277.27c-.03-8.52-1.84-15.16-5.23-21.33-10.58-19.27-34-22.61-48.09-6.91-13.62,15.18-13.11,40,1.12,54.64,10.82,11.13,27.91,11.85,39.22,1.68,8.78-7.89,12.59-17.93,12.98-28.08Z"/>
  <path class="cls-2" d="M221.84,263.14c0-9.49,0-18.97,0-28.46,0-8.16,3.3-12.81,9.05-12.74,6.26.08,9.33,4.34,9.33,12.97,0,18.47-.05,36.95.03,55.42.03,6.75,1.24,13.04,6.72,17.95,6.23,5.58,13.3,5.53,20.43,3.26,6.9-2.19,10.35-7.66,11.45-14.77.82-5.29.63-10.58.63-15.88.02-16.14,0-32.29.01-48.43,0-6.05,2.82-9.82,7.6-10.33,5.89-.63,10.12,1.94,10.38,8.48.92,23.86,3.04,47.93-1.13,71.54-3.55,20.1-19.35,30.16-39.69,29.06-20.73-1.12-34.37-18.27-34.77-37.61-.21-10.15-.04-20.3-.04-30.45Z"/>
  <path class="cls-2" d="M44.94,338.55c-6.94-.16-11.08-6.57-8.71-13.39,3.79-10.91,7.83-21.74,11.84-32.58,6.54-17.66,13.2-35.27,19.7-52.95,12.14-33.02,24.18-66.08,36.31-99.1,1.91-5.2,7.13-7.75,12.02-6.09,5.13,1.74,7.49,6.39,5.46,12.03-8.88,24.66-17.9,49.27-26.91,73.89-10.44,28.52-20.91,57.02-31.4,85.52-3.2,8.69-6.53,17.32-9.75,26-1.56,4.23-4.82,6.04-8.55,6.66Z"/>
  <path class="cls-2" d="M324.8,285.15c0-11.66-.1-23.32.06-34.97.05-3.23-.47-4.79-4.26-4.67-6.05.19-9.79-3.43-9.8-8.66,0-5.7,3.6-9.55,9.73-9.5,3.66.03,4.46-1.25,4.33-4.6-.24-6.49-.09-12.99-.06-19.48.02-6.7,3.65-10.91,9.44-11,5.54-.09,8.91,3.92,8.93,10.63.02,6.98.15,13.97-.01,20.95-.06,2.64.77,3.63,3.39,3.43,2.15-.16,4.33-.13,6.49,0,5.4.31,9.2,4.42,9.12,9.75-.08,5-3.94,8.5-9.47,8.59-9.29.16-9.32.16-9.34,9.19-.06,21.95-.09,43.89-.15,65.84-.02,6.68-3.16,10.3-9,10.41-5.49.11-9.33-4.02-9.38-10.42-.09-11.82-.03-23.65-.03-35.47Z"/>
  <g>
    <path id="primary" class="cls-1" d="M380.34,253.52c12.82-22.23,41.24-29.86,63.48-17.04,14.39,8.3,23.26,23.66,23.26,40.28"/>
    <path id="primary-2" class="cls-1" d="M460.85,300c-12.82,22.23-41.24,29.86-63.48,17.04-14.39-8.3-23.26-23.66-23.26-40.28"/>
  </g>
  <polyline id="primary-3" class="cls-1" points="379.93 224.48 379.93 253.52 408.98 253.52"/>
  <polyline id="primary-4" class="cls-1" points="461.26 329.04 461.26 300 432.22 300"/>
</svg>