<?xml version="1.0" encoding="UTF-8" standalone="no" ?>
<svg xmlns="http://www.w3.org/2000/svg"
     width="1080" height="1080" viewBox="0 0 1080 1080" xml:space="preserve">
<rect x="0" y="0" width="100%" height="100%" fill="transparent"></rect>
<g transform="matrix(1 0 0 1 540 540)" id="aa1a14c1-9b48-4f2c-8791-02e2241e357b"  >
</g>
<g transform="matrix(1 0 0 1 540 540)" id="6d7fd908-7f8a-49db-bb57-dd00d792d2ea"  >
<rect style="stroke: none; stroke-width: 1; stroke-dasharray: none; stroke-linecap: butt; stroke-dashoffset: 0; stroke-linejoin: miter; stroke-miterlimit: 4; fill: rgb(255,255,255); fill-rule: nonzero; opacity: 1; visibility: hidden;" vector-effect="non-scaling-stroke"  x="-540" y="-540" rx="0" ry="0" width="1080" height="1080" />
</g>
<g transform="matrix(45.02 0 0 45.02 406.66 695.35)"  >
<path style="stroke: rgb(0,0,0); stroke-width: 0; stroke-dasharray: none; stroke-linecap: butt; stroke-dashoffset: 0; stroke-linejoin: miter; stroke-miterlimit: 4; fill: rgb(0,0,0); fill-rule: nonzero; opacity: 1;" vector-effect="non-scaling-stroke"  transform=" translate(-10, -10.5)" d="M 3 6 L 3 9 L 7 9 L 7 6 L 3 6 z M 3 10 L 3 13 L 7 13 L 7 10 L 3 10 z M 3 14 L 3 17 L 7 17 L 7 14 L 3 14 z M 8 17 L 12 17 L 12 14 L 8 14 L 8 17 z M 13 17 L 17 17 L 17 14 L 13 14 L 13 17 z M 17 13 L 17 10 L 13 10 L 13 13 L 17 13 z M 17 9 L 17 6 L 13 6 L 13 9 L 17 9 z M 18.5 17 C 18.5 17.82842712474619 17.82842712474619 18.5 17 18.5 L 3 18.5 C 2.1715728752538097 18.5 1.5 17.82842712474619 1.5 17 L 1.5 4 C 1.722 3.137 2.568 2.5 3.5 2.5 L 16.5 2.5 C 17.432 2.5 18.278 3.137 18.5 4 L 18.5 17 z M 12 13 L 12 10 L 8 10 L 8 13 L 12 13 z M 12 9 L 12 6 L 8 6 L 8 9 L 12 9 z" stroke-linecap="round" />
</g>
<g transform="matrix(4.52 0 0 4.52 907.88 181.98)"  >
<path style="stroke: rgb(0,0,0); stroke-width: 0; stroke-dasharray: none; stroke-linecap: butt; stroke-dashoffset: 0; stroke-linejoin: miter; stroke-miterlimit: 4; fill: rgb(0,0,0); fill-rule: nonzero; opacity: 1;" vector-effect="non-scaling-stroke"  transform=" translate(-50, -50)" d="M 40.747 13.955 L 59.254000000000005 13.955 C 60.353 13.955 61.242000000000004 14.845 61.242000000000004 15.941 L 61.242000000000004 38.787 L 84.08600000000001 38.787 C 85.18400000000001 38.787 86.07000000000001 39.675 86.07000000000001 40.772999999999996 L 86.07000000000001 59.226 C 86.07000000000001 60.324999999999996 85.183 61.211999999999996 84.08600000000001 61.211999999999996 L 61.242 61.211999999999996 L 61.242 84.05799999999999 C 61.242 85.157 60.352 86.044 59.254 86.044 L 40.747 86.044 C 39.652 86.044 38.762 85.15599999999999 38.762 84.05799999999999 L 38.762 61.213 L 15.915 61.213 C 14.819999999999999 61.213 13.93 60.325 13.93 59.227000000000004 L 13.93 40.773 C 13.93 39.67400000000001 14.82 38.787000000000006 15.915 38.787000000000006 L 38.762 38.787000000000006 L 38.762 15.941 C 38.762 14.845 39.651 13.955 40.747 13.955 z" stroke-linecap="round" />
</g>
</svg>
